<svg xmlns="http://www.w3.org/2000/svg" xmlns:xlink="http://www.w3.org/1999/xlink" preserveAspectRatio="xMidYMid" width="57.031" height="70.62" viewBox="0 0 57.031 70.62">
  <defs>
    <style>
      .cls-1 {
        fill: #65aacd;
        fill-rule: evenodd;
      }
    </style>
  </defs>
  <path d="M40.394,48.823 L41.746,48.549 L44.264,53.063 L57.032,59.407 L56.973,60.526 C56.896,62.065 55.425,63.057 54.974,63.322 C47.029,68.092 37.901,70.614 28.578,70.614 C19.306,70.614 10.213,68.118 2.284,63.382 L2.114,63.271 C1.655,62.911 0.558,61.963 0.294,60.826 L-0.012,59.475 L13.037,53.405 L15.019,48.515 L16.652,48.849 L16.652,41.300 C13.709,36.478 11.965,29.938 11.965,22.663 L11.965,8.558 C11.965,3.839 15.776,0.009 20.471,0.009 L37.484,0.009 C42.180,0.009 45.991,3.839 45.991,8.558 L45.991,22.663 C45.906,29.263 43.643,36.376 40.394,41.616 L40.394,48.823 ZM20.055,49.541 L28.314,51.225 L36.991,49.498 L36.991,46.010 C36.761,46.241 36.532,46.463 36.293,46.677 C34.073,48.686 31.657,49.720 29.242,49.720 C28.986,49.720 28.723,49.703 28.459,49.678 C25.329,49.387 22.470,47.934 20.055,45.609 L20.055,49.541 ZM42.988,21.236 C29.667,15.422 19.833,18.414 15.104,20.757 C15.129,36.376 21.237,45.566 28.774,46.275 C30.500,46.438 32.261,45.720 34.014,44.138 C38.344,40.223 42.631,34.102 42.988,21.236 Z" class="cls-1"/>
</svg>
