<svg xmlns="http://www.w3.org/2000/svg" xmlns:xlink="http://www.w3.org/1999/xlink" preserveAspectRatio="xMidYMid" width="65.562" height="67.222" viewBox="0 0 65.562 67.222">
  <defs>
    <style>
      .cls-1 {
        fill: #65aacd;
        fill-rule: evenodd;
      }
    </style>
  </defs>
  <path d="M63.938,67.218 L15.444,67.218 C14.548,67.218 13.819,66.490 13.819,65.591 L13.819,1.639 C13.819,0.740 14.548,0.012 15.444,0.012 L33.885,0.012 C34.781,0.012 35.510,0.740 35.510,1.639 L35.510,17.940 L42.785,14.688 C43.234,14.488 43.757,14.501 44.194,14.730 L51.043,18.285 L51.043,1.639 C51.043,0.740 51.771,0.012 52.668,0.012 L63.938,0.012 C64.834,0.012 65.562,0.740 65.562,1.639 L65.562,65.591 C65.562,66.490 64.834,67.218 63.938,67.218 ZM8.109,67.218 L1.631,67.218 C0.735,67.218 0.006,66.490 0.006,65.591 L0.006,1.639 C0.006,0.740 0.735,0.012 1.631,0.012 L8.109,0.012 C9.005,0.012 9.734,0.740 9.734,1.639 L9.734,65.591 C9.734,66.490 9.005,67.218 8.109,67.218 Z" class="cls-1"/>
</svg>
