<svg xmlns="http://www.w3.org/2000/svg" xmlns:xlink="http://www.w3.org/1999/xlink" preserveAspectRatio="xMidYMid" width="71.907" height="70.559" viewBox="0 0 71.907 70.559">
  <defs>
    <style>
      .cls-1 {
        fill: #65aacd;
        fill-rule: evenodd;
      }
    </style>
  </defs>
  <path d="M71.730,18.845 C71.439,19.460 70.822,19.820 70.189,19.820 C69.941,19.820 69.684,19.760 69.453,19.649 L65.055,17.545 L65.055,60.291 C65.055,65.952 60.451,70.552 54.786,70.552 L17.135,70.552 C11.470,70.552 6.866,65.952 6.866,60.291 L6.866,17.545 L2.468,19.649 C1.621,20.059 0.594,19.700 0.192,18.845 C-0.219,17.990 0.140,16.972 0.996,16.562 L7.705,13.347 L35.225,0.178 C35.687,-0.053 36.234,-0.053 36.697,0.178 L64.071,13.278 L70.925,16.562 C71.781,16.972 72.140,17.990 71.730,18.845 ZM40.248,30.294 C39.906,30.294 39.580,30.431 39.341,30.671 L22.962,46.952 C22.372,47.550 21.816,48.756 21.747,49.594 L21.379,54.648 C21.354,54.964 21.448,55.246 21.645,55.460 C21.833,55.665 22.107,55.776 22.415,55.776 L22.500,55.776 L27.558,55.426 C28.396,55.366 29.611,54.819 30.210,54.229 L46.589,37.939 C46.828,37.700 46.957,37.375 46.957,37.033 C46.965,36.691 46.828,36.366 46.589,36.126 L41.155,30.671 C40.915,30.431 40.590,30.294 40.248,30.294 ZM52.656,30.098 L47.222,24.642 C46.982,24.394 46.657,24.266 46.315,24.266 C45.973,24.266 45.647,24.394 45.408,24.634 L43.585,26.447 C43.089,26.943 43.080,27.755 43.585,28.259 L49.019,33.715 C49.498,34.194 50.345,34.202 50.833,33.715 L52.647,31.911 C53.152,31.406 53.152,30.594 52.656,30.098 Z" class="cls-1"/>
</svg>
