<svg xmlns="http://www.w3.org/2000/svg" xmlns:xlink="http://www.w3.org/1999/xlink" preserveAspectRatio="xMidYMid" width="73.094" height="74" viewBox="0 0 73.094 74">
  <defs>
    <style>
      .cls-1 {
        fill: #65aacd;
        fill-rule: evenodd;
      }
    </style>
  </defs>
  <path d="M71.366,41.678 L64.917,41.678 L73.005,71.863 C73.141,72.373 73.039,72.918 72.716,73.343 C72.394,73.760 71.892,74.007 71.366,74.007 L64.925,74.007 L64.245,70.604 L62.368,61.203 C62.181,60.284 61.289,59.688 60.362,59.875 C59.445,60.063 58.850,60.956 59.037,61.883 L60.779,70.604 L61.459,74.007 L58.111,74.007 L57.593,70.604 L57.117,67.498 C56.981,66.563 56.123,65.916 55.197,66.044 C54.262,66.180 53.616,67.039 53.744,67.966 L54.152,70.604 L54.670,74.007 L38.229,74.007 L38.229,70.604 L38.229,53.588 C38.229,52.653 37.464,51.887 36.530,51.887 C35.595,51.887 34.830,52.653 34.830,53.588 L34.830,70.604 L34.830,74.007 L12.145,74.007 L13.249,70.604 L15.492,63.661 C15.773,62.768 15.272,61.815 14.379,61.534 C13.479,61.254 12.527,61.756 12.247,62.658 L9.681,70.604 L8.576,74.007 L1.694,74.007 C1.167,74.007 0.666,73.760 0.343,73.343 C0.029,72.926 -0.082,72.373 0.054,71.863 L8.092,41.678 L1.694,41.678 C0.759,41.678 -0.005,40.912 -0.005,39.976 C-0.005,39.040 0.759,38.275 1.694,38.275 L34.830,38.275 L34.830,1.691 C34.830,0.756 35.595,-0.010 36.530,-0.010 C37.464,-0.010 38.229,0.756 38.229,1.691 L38.229,38.275 L71.366,38.275 C72.300,38.275 73.065,39.040 73.065,39.976 C73.065,40.912 72.300,41.678 71.366,41.678 Z" class="cls-1"/>
</svg>
