<svg xmlns="http://www.w3.org/2000/svg" xmlns:xlink="http://www.w3.org/1999/xlink" preserveAspectRatio="xMidYMid" width="71.5" height="71.47" viewBox="0 0 71.5 71.47">
  <defs>
    <style>
      .cls-1 {
        fill: #65aacd;
        fill-rule: evenodd;
      }
    </style>
  </defs>
  <path d="M69.804,22.123 L66.917,22.123 C66.092,37.258 54.334,49.517 39.409,51.142 C46.127,52.019 51.439,55.328 54.172,60.416 C54.223,60.407 54.283,60.407 54.334,60.407 C57.390,60.407 59.868,62.891 59.868,65.937 C59.868,68.983 57.390,71.467 54.334,71.467 C51.286,71.467 48.800,68.983 48.800,65.937 C48.800,64.176 49.626,62.611 50.920,61.598 C48.434,57.387 43.572,54.775 37.451,54.367 L37.451,60.731 C39.605,61.488 41.137,63.538 41.137,65.937 C41.137,68.983 38.660,71.467 35.603,71.467 C32.555,71.467 30.069,68.983 30.069,65.937 C30.069,63.436 31.755,61.309 34.045,60.628 L34.045,54.367 C27.847,54.775 22.943,57.447 20.483,61.751 C21.658,62.764 22.407,64.261 22.407,65.937 C22.407,68.983 19.929,71.467 16.873,71.467 C13.825,71.467 11.339,68.983 11.339,65.937 C11.339,62.891 13.825,60.407 16.873,60.407 C17.026,60.407 17.179,60.416 17.324,60.424 C20.091,55.260 25.514,51.917 32.377,51.100 C17.809,49.305 6.000,36.909 5.149,22.123 L1.692,22.123 C0.756,22.123 -0.010,21.357 -0.010,20.421 C-0.010,19.485 0.756,18.720 1.692,18.720 L6.801,18.720 C7.737,18.720 8.504,19.485 8.504,20.421 C8.504,27.627 11.449,34.289 16.166,39.249 L16.166,38.287 C16.166,37.351 16.932,36.586 17.869,36.586 L52.776,36.586 C53.712,36.586 54.479,37.351 54.479,38.287 L54.479,40.823 C60.055,35.786 63.563,28.512 63.563,20.421 C63.563,19.485 64.321,18.720 65.266,18.720 L69.804,18.720 C70.740,18.720 71.506,19.485 71.506,20.421 C71.506,21.357 70.740,22.123 69.804,22.123 ZM54.334,68.064 C55.509,68.064 56.462,67.111 56.462,65.937 C56.462,64.763 55.509,63.810 54.334,63.810 C54.113,63.810 53.900,63.844 53.704,63.904 L53.695,63.904 C52.835,64.185 52.205,64.984 52.205,65.937 C52.205,67.111 53.167,68.064 54.334,68.064 ZM17.596,63.938 C17.375,63.853 17.128,63.810 16.873,63.810 C15.706,63.810 14.744,64.763 14.744,65.937 C14.744,67.111 15.706,68.064 16.873,68.064 C18.048,68.064 19.001,67.111 19.001,65.937 C19.001,65.018 18.414,64.236 17.596,63.938 ZM33.475,65.937 C33.475,67.111 34.437,68.064 35.603,68.064 C36.778,68.064 37.732,67.111 37.732,65.937 C37.732,64.763 36.778,63.810 35.603,63.810 C34.437,63.810 33.475,64.763 33.475,65.937 ZM51.499,34.033 L19.997,34.033 C19.095,34.033 18.346,33.327 18.295,32.426 L16.592,1.798 C16.566,1.330 16.737,0.871 17.060,0.539 C17.375,0.198 17.826,0.003 18.295,0.003 L53.202,0.003 C53.670,0.003 54.121,0.198 54.436,0.539 C54.760,0.871 54.930,1.330 54.904,1.798 L53.202,32.426 C53.150,33.327 52.401,34.033 51.499,34.033 Z" class="cls-1"/>
</svg>
