<svg xmlns="http://www.w3.org/2000/svg" xmlns:xlink="http://www.w3.org/1999/xlink" preserveAspectRatio="xMidYMid" width="74.062" height="74" viewBox="0 0 74.062 74">
  <defs>
    <style>
      .cls-1 {
        fill: #65aacd;
        fill-rule: evenodd;
      }
    </style>
  </defs>
  <path d="M66.553,45.379 C63.694,55.640 55.563,63.747 45.267,66.625 C44.830,70.772 41.304,74.008 37.024,74.008 C32.745,74.008 29.210,70.772 28.773,66.633 C18.340,63.738 10.123,55.470 7.350,45.030 C3.216,44.570 -0.011,41.070 -0.011,36.838 C-0.011,32.521 3.336,28.970 7.589,28.621 C10.568,18.590 18.596,10.696 28.739,7.878 C28.927,3.501 32.573,-0.008 37.024,-0.008 C41.475,-0.008 45.112,3.501 45.301,7.886 C55.529,10.756 63.617,18.786 66.510,28.953 C70.730,29.328 74.051,32.870 74.051,37.170 C74.051,41.454 70.756,44.979 66.553,45.379 ZM67.298,32.581 C66.818,32.410 66.305,32.325 65.766,32.325 C65.038,32.325 64.345,32.487 63.728,32.777 C62.539,33.313 61.614,34.318 61.186,35.552 L57.634,35.552 L38.762,35.552 L38.736,16.308 L38.736,12.765 C39.806,12.365 40.696,11.599 41.244,10.620 C41.655,9.921 41.886,9.104 41.886,8.244 C41.886,7.861 41.843,7.477 41.740,7.120 C41.244,4.991 39.318,3.399 37.024,3.399 C34.730,3.399 32.804,4.982 32.299,7.111 C32.197,7.477 32.154,7.852 32.154,8.244 C32.154,9.104 32.385,9.921 32.787,10.620 C33.344,11.599 34.234,12.365 35.312,12.765 L35.312,16.308 L35.338,35.552 L16.465,35.552 L12.956,35.552 C12.588,34.173 11.612,33.049 10.328,32.461 C9.703,32.163 9.010,32.002 8.274,32.002 C7.743,32.002 7.230,32.087 6.751,32.257 C4.808,32.887 3.413,34.701 3.413,36.838 C3.413,38.925 4.748,40.713 6.622,41.377 C7.136,41.573 7.692,41.675 8.274,41.675 C8.959,41.675 9.618,41.530 10.208,41.275 C11.270,40.815 12.134,39.998 12.639,38.959 L16.285,38.959 L35.338,38.959 L35.364,57.684 L35.364,61.218 C34.097,61.669 33.078,62.631 32.556,63.849 C32.299,64.437 32.154,65.084 32.154,65.765 C32.154,66.344 32.257,66.906 32.454,67.417 C33.130,69.273 34.919,70.601 37.024,70.601 C39.121,70.601 40.918,69.265 41.586,67.408 C41.783,66.897 41.886,66.344 41.886,65.765 C41.886,65.084 41.740,64.428 41.483,63.840 C40.970,62.657 39.994,61.720 38.787,61.260 L38.787,57.701 L38.762,38.959 L57.677,38.959 L61.246,38.959 C61.709,40.117 62.607,41.053 63.754,41.564 C64.362,41.854 65.047,42.007 65.766,42.007 C66.313,42.007 66.835,41.913 67.323,41.743 C69.240,41.104 70.627,39.291 70.627,37.170 C70.627,35.033 69.232,33.211 67.298,32.581 Z" class="cls-1"/>
</svg>
