<svg xmlns="http://www.w3.org/2000/svg" xmlns:xlink="http://www.w3.org/1999/xlink" preserveAspectRatio="xMidYMid" width="71.218" height="71.312" viewBox="0 0 71.218 71.312">
  <defs>
    <style>
      .cls-1 {
        fill: #65aacd;
        fill-rule: evenodd;
      }
    </style>
  </defs>
  <path d="M69.521,16.686 C69.411,16.686 69.309,16.669 69.199,16.652 L35.362,10.012 C35.286,10.004 35.210,9.987 35.133,9.970 L1.356,3.347 C0.432,3.169 -0.162,2.277 0.016,1.360 C0.194,0.435 1.085,-0.159 2.001,0.019 L34.396,6.370 L35.379,2.914 C35.642,2.014 36.575,1.488 37.482,1.751 C38.381,2.006 38.899,2.948 38.644,3.848 L37.737,7.024 L69.843,13.315 C70.768,13.502 71.361,14.394 71.183,15.311 C71.031,16.117 70.318,16.686 69.521,16.686 ZM1.678,20.363 L69.521,20.363 C70.072,20.363 70.590,20.635 70.903,21.085 C71.226,21.535 71.302,22.112 71.115,22.630 L54.155,70.179 C53.917,70.858 53.281,71.308 52.560,71.308 L18.639,71.308 C17.918,71.308 17.282,70.858 17.045,70.179 L0.084,22.630 C-0.103,22.112 -0.026,21.535 0.296,21.085 C0.610,20.635 1.127,20.363 1.678,20.363 ZM44.419,57.927 C44.589,57.978 44.758,58.003 44.928,58.003 C45.649,58.003 46.319,57.545 46.548,56.814 L53.332,35.018 C53.612,34.127 53.112,33.176 52.221,32.895 C51.322,32.615 50.373,33.116 50.093,34.008 L43.308,55.804 C43.029,56.695 43.529,57.646 44.419,57.927 ZM33.904,56.025 C33.904,56.959 34.667,57.723 35.600,57.723 C36.533,57.723 37.296,56.959 37.296,56.025 L37.296,33.948 C37.296,33.014 36.533,32.250 35.600,32.250 C34.667,32.250 33.904,33.014 33.904,33.948 L33.904,56.025 ZM17.867,35.018 L24.652,56.814 C24.880,57.545 25.550,58.003 26.271,58.003 C26.441,58.003 26.611,57.978 26.780,57.927 C27.671,57.646 28.171,56.695 27.891,55.804 L21.107,34.008 C20.827,33.116 19.877,32.615 18.978,32.895 C18.088,33.176 17.587,34.127 17.867,35.018 Z" class="cls-1"/>
</svg>
