<svg xmlns="http://www.w3.org/2000/svg" xmlns:xlink="http://www.w3.org/1999/xlink" preserveAspectRatio="xMidYMid" width="68.125" height="64.65" viewBox="0 0 68.125 64.65">
  <defs>
    <style>
      .cls-1 {
        fill: #65aacd;
        fill-rule: evenodd;
      }
    </style>
  </defs>
  <path d="M68.117,58.244 C68.117,58.885 67.614,59.509 66.669,60.098 C62.455,62.730 49.446,64.652 34.061,64.652 C18.677,64.652 5.667,62.730 1.453,60.098 C0.576,59.551 0.082,58.979 0.014,58.381 C0.006,58.338 0.006,58.287 0.006,58.244 L0.006,58.167 L0.006,50.837 C0.006,50.692 0.031,50.555 0.082,50.409 C0.252,49.923 0.721,49.444 1.453,48.991 C2.253,49.495 3.377,49.965 4.782,50.409 C7.770,51.358 12.010,52.144 17.076,52.691 C22.074,53.238 27.872,53.545 34.061,53.545 C40.242,53.545 46.049,53.238 51.046,52.691 C56.112,52.144 60.352,51.358 63.340,50.409 C64.737,49.974 65.869,49.495 66.669,48.991 C67.401,49.444 67.870,49.923 68.040,50.409 C68.091,50.555 68.117,50.692 68.117,50.837 L68.117,57.954 L68.083,57.954 C68.108,58.048 68.117,58.150 68.117,58.244 ZM66.661,45.283 C65.588,45.958 63.962,46.573 61.867,47.137 C55.695,48.769 45.546,49.837 34.061,49.837 C22.576,49.837 12.427,48.769 6.255,47.137 C4.160,46.573 2.534,45.958 1.461,45.283 C0.585,44.745 0.082,44.173 0.014,43.574 C0.006,43.532 0.006,43.480 0.006,43.429 L0.006,43.361 L0.006,36.030 C0.006,35.979 0.006,35.928 0.014,35.885 C0.082,35.287 0.585,34.715 1.461,34.176 C2.440,34.791 3.888,35.364 5.727,35.885 C8.639,36.697 12.521,37.389 17.076,37.884 C22.074,38.423 27.872,38.730 34.061,38.730 C40.242,38.730 46.049,38.423 51.046,37.884 C55.601,37.389 59.484,36.697 62.395,35.885 C64.234,35.364 65.682,34.791 66.661,34.176 C67.538,34.715 68.040,35.287 68.108,35.885 C68.117,35.928 68.117,35.979 68.117,36.030 L68.117,43.147 L68.083,43.147 C68.108,43.241 68.117,43.335 68.117,43.429 C68.117,44.079 67.606,44.702 66.661,45.283 ZM66.669,30.477 C65.597,31.143 63.962,31.758 61.867,32.322 C55.695,33.963 45.546,35.031 34.061,35.031 C22.576,35.031 12.427,33.963 6.255,32.322 C4.160,31.758 2.526,31.143 1.453,30.477 C0.721,30.016 0.252,29.537 0.082,29.050 C0.031,28.905 0.006,28.768 0.006,28.623 L0.006,21.360 L0.082,21.360 C0.031,21.215 0.006,21.079 0.006,20.933 C0.006,20.344 0.431,19.763 1.240,19.225 C2.389,20.011 4.314,20.737 6.842,21.360 C9.609,22.061 13.108,22.642 17.118,23.069 C22.108,23.616 27.889,23.924 34.061,23.924 C40.225,23.924 46.015,23.616 51.004,23.069 C55.014,22.642 58.513,22.061 61.280,21.360 C63.809,20.728 65.733,20.011 66.882,19.225 C67.691,19.763 68.117,20.344 68.117,20.933 C68.117,21.079 68.091,21.215 68.040,21.360 L68.117,21.360 L68.117,28.623 C68.117,29.264 67.614,29.887 66.669,30.477 ZM66.882,15.807 C65.988,16.422 64.626,16.995 62.872,17.516 C56.836,19.310 46.193,20.506 34.061,20.506 C21.929,20.506 11.286,19.310 5.250,17.516 C3.496,16.995 2.134,16.422 1.240,15.807 C0.431,15.269 0.006,14.688 0.006,14.098 C0.006,14.047 0.006,13.996 0.014,13.953 L0.006,13.953 L0.006,6.409 C0.006,6.264 0.031,6.127 0.082,5.982 C1.240,2.641 16.012,0.001 34.061,0.001 C52.111,0.001 66.882,2.641 68.040,5.982 C68.091,6.127 68.117,6.264 68.117,6.409 L68.117,13.526 L67.980,13.526 C68.074,13.714 68.117,13.910 68.117,14.098 C68.117,14.688 67.691,15.269 66.882,15.807 Z" class="cls-1"/>
</svg>
