<svg xmlns="http://www.w3.org/2000/svg" xmlns:xlink="http://www.w3.org/1999/xlink" preserveAspectRatio="xMidYMid" width="71.5" height="70.625" viewBox="0 0 71.5 70.625">
  <defs>
    <style>
      .cls-1 {
        fill: #65aacd;
        fill-rule: evenodd;
      }
    </style>
  </defs>
  <path d="M66.442,39.371 C60.211,59.811 49.316,70.620 34.914,70.620 C20.494,70.620 9.880,59.803 4.228,39.329 C0.066,24.255 0.015,9.460 0.015,8.833 C0.015,8.199 0.372,7.623 0.934,7.327 C1.513,7.030 15.413,-0.003 35.765,-0.003 C47.715,-0.003 59.402,2.443 70.493,7.284 C71.132,7.564 71.532,8.190 71.515,8.884 C71.498,9.502 71.030,24.305 66.442,39.371 ZM33.211,21.529 L33.211,17.297 C33.211,16.366 32.445,15.604 31.509,15.604 C30.572,15.604 29.806,16.366 29.806,17.297 L29.806,21.529 L26.402,21.529 C25.465,21.529 24.699,22.291 24.699,23.222 L24.699,37.610 C24.699,38.541 25.465,39.303 26.402,39.303 L33.211,39.303 L33.211,53.692 C33.211,54.623 33.977,55.385 34.914,55.385 C35.850,55.385 36.616,54.623 36.616,53.692 L36.616,39.303 L44.277,39.303 C45.213,39.303 45.979,38.541 45.979,37.610 L45.979,23.222 C45.979,22.291 45.213,21.529 44.277,21.529 L40.872,21.529 L40.872,17.297 C40.872,16.366 40.106,15.604 39.170,15.604 C38.233,15.604 37.467,16.366 37.467,17.297 L37.467,21.529 L33.211,21.529 Z" class="cls-1"/>
</svg>
