<svg xmlns="http://www.w3.org/2000/svg" xmlns:xlink="http://www.w3.org/1999/xlink" preserveAspectRatio="xMidYMid" width="71.532" height="71.437" viewBox="0 0 71.532 71.437">
  <defs>
    <style>
      .cls-1 {
        fill: #65aacd;
        fill-rule: evenodd;
      }
    </style>
  </defs>
  <path d="M35.764,71.443 C16.049,71.443 0.009,55.414 0.009,35.714 C0.009,16.013 16.049,-0.015 35.764,-0.015 C55.479,-0.015 71.519,16.013 71.519,35.714 C71.519,55.414 55.479,71.443 35.764,71.443 ZM9.315,37.422 C10.255,37.422 11.024,36.653 11.024,35.714 C11.024,22.076 22.125,10.983 35.764,10.983 C36.713,10.983 37.473,10.223 37.473,9.276 C37.473,8.336 36.713,7.568 35.764,7.568 C20.236,7.568 7.606,20.198 7.606,35.714 C7.606,36.653 8.367,37.422 9.315,37.422 ZM35.636,41.990 C39.037,41.990 41.789,39.240 41.789,35.842 C41.789,32.443 39.037,29.693 35.636,29.693 C32.235,29.693 29.483,32.443 29.483,35.842 C29.483,39.240 32.235,41.990 35.636,41.990 ZM16.126,37.422 C17.066,37.422 17.835,36.653 17.835,35.714 C17.835,25.833 25.877,17.789 35.764,17.789 C36.713,17.789 37.473,17.029 37.473,16.081 C37.473,15.142 36.713,14.374 35.764,14.374 C23.988,14.374 14.417,23.946 14.417,35.714 C14.417,36.653 15.177,37.422 16.126,37.422 ZM55.410,34.006 C54.462,34.006 53.701,34.766 53.701,35.714 C53.701,45.594 45.651,53.629 35.764,53.629 C34.824,53.629 34.055,54.398 34.055,55.337 C34.055,56.285 34.824,57.045 35.764,57.045 C47.540,57.045 57.120,47.473 57.120,35.714 C57.120,34.766 56.351,34.006 55.410,34.006 ZM35.764,60.435 C34.824,60.435 34.055,61.204 34.055,62.143 C34.055,63.091 34.824,63.851 35.764,63.851 C51.292,63.851 63.931,51.230 63.931,35.714 C63.931,34.766 63.161,34.006 62.221,34.006 C61.273,34.006 60.512,34.766 60.512,35.714 C60.512,49.343 49.411,60.435 35.764,60.435 Z" class="cls-1"/>
</svg>
