<svg xmlns="http://www.w3.org/2000/svg" xmlns:xlink="http://www.w3.org/1999/xlink" preserveAspectRatio="xMidYMid" width="71.938" height="71.875" viewBox="0 0 71.938 71.875">
  <defs>
    <style>
      .cls-1 {
        fill: #65aacd;
        fill-rule: evenodd;
      }
    </style>
  </defs>
  <path d="M61.403,61.348 C47.379,75.364 24.562,75.370 10.532,61.348 C8.715,59.533 7.144,57.565 5.800,55.492 C5.444,54.949 5.123,54.430 4.841,53.949 C4.322,53.056 3.930,52.290 3.640,51.687 C3.549,51.496 3.468,51.322 3.398,51.167 C3.328,51.011 3.268,50.874 3.219,50.759 C-0.983,41.468 -1.050,30.752 3.055,21.432 C3.152,21.215 3.242,21.004 3.339,20.786 C5.071,17.065 7.466,13.574 10.532,10.510 C13.797,7.248 17.532,4.745 21.527,3.008 C30.841,-1.060 41.536,-0.986 50.808,3.203 C51.039,3.300 51.352,3.439 51.736,3.623 C52.339,3.913 53.106,4.305 53.999,4.823 C54.481,5.105 55.000,5.426 55.543,5.782 C57.617,7.124 59.587,8.695 61.403,10.510 C75.434,24.531 75.428,47.333 61.403,61.348 ZM42.799,49.848 L50.547,64.888 C53.625,63.357 56.419,61.336 58.881,58.876 C62.200,55.559 64.131,52.206 65.006,50.427 L50.348,41.773 L50.300,41.749 C49.606,43.588 48.532,45.241 47.095,46.676 C45.587,48.184 43.963,49.154 42.750,49.752 L42.799,49.848 ZM21.292,64.888 L29.064,49.812 L29.094,49.758 C28.201,49.323 27.091,48.684 25.968,47.779 C24.279,46.429 22.565,44.475 21.539,41.749 L6.833,50.427 C8.287,53.340 12.584,60.540 21.292,64.888 ZM21.382,6.844 L21.364,6.813 C19.590,7.694 16.229,9.618 12.910,12.934 C10.447,15.395 8.426,18.187 6.893,21.263 L6.899,21.269 L22.040,29.054 C22.637,27.842 23.609,26.220 25.118,24.712 C26.554,23.277 28.207,22.204 30.048,21.510 L21.382,6.844 ZM39.208,24.284 C39.039,24.236 38.870,24.188 38.701,24.151 C34.767,23.247 30.470,24.320 27.411,27.378 C24.375,30.411 23.289,34.669 24.170,38.577 C24.206,38.782 24.255,38.975 24.315,39.168 C24.327,39.240 24.345,39.306 24.363,39.373 C25.009,41.900 26.427,43.691 27.863,44.909 C27.930,44.975 27.996,45.029 28.062,45.084 C29.378,46.218 30.880,47.032 32.468,47.508 C34.694,48.177 37.072,48.190 39.311,47.556 C41.218,47.014 43.028,45.988 44.531,44.487 C46.299,42.720 47.409,40.537 47.844,38.245 C48.218,36.315 48.115,34.319 47.554,32.432 C47.114,30.990 46.414,29.615 45.430,28.391 C45.406,28.367 45.382,28.331 45.357,28.295 C44.138,26.714 42.244,25.050 39.413,24.332 C39.347,24.314 39.281,24.296 39.208,24.284 ZM52.491,7.916 C51.943,7.594 51.394,7.274 50.831,6.988 C50.704,6.922 50.596,6.862 50.481,6.807 L41.791,21.510 C44.519,22.535 46.474,24.248 47.826,25.937 C48.731,27.058 49.370,28.168 49.805,29.060 L49.859,29.030 L64.946,21.263 C61.385,14.136 55.955,9.987 52.491,7.916 Z" class="cls-1"/>
</svg>
