<!-- Generated by IcoMoon.io -->
<svg version="1.1" xmlns="http://www.w3.org/2000/svg" width="32" height="32" viewBox="0 0 32 32">
<title>check-mark</title>
<path fill="#fff" d="M16 32c8.822 0 16-7.178 16-16s-7.178-16-16-16-16 7.178-16 16 7.178 16 16 16zM16 1.599c7.941 0 14.401 6.46 14.401 14.401s-6.46 14.401-14.401 14.401-14.401-6.46-14.401-14.401 6.46-14.401 14.401-14.401z"></path>
<path fill="#fff" d="M13.475 22.812c0.15 0.15 0.352 0.235 0.568 0.235v0c0.209 0 0.411-0.085 0.561-0.235l9.625-9.573c0.15-0.15 0.235-0.352 0.235-0.568 0-0.209-0.085-0.418-0.235-0.568l-2.91-2.923c-0.313-0.313-0.816-0.313-1.129-0.007l-6.134 6.101-2.232-2.245c-0.15-0.15-0.352-0.235-0.568-0.235v0c-0.209 0-0.411 0.085-0.561 0.235l-2.923 2.91c-0.15 0.15-0.235 0.352-0.235 0.568 0 0.209 0.085 0.418 0.235 0.568l5.703 5.736zM11.256 14.728l2.238 2.251c0.313 0.313 0.816 0.313 1.129 0.007l6.134-6.101 1.781 1.788-8.489 8.444-4.581-4.607 1.788-1.781z"></path>
</svg>
