<!-- Generated by IcoMoon.io -->
<svg version="1.1" xmlns="http://www.w3.org/2000/svg" width="33" height="32" viewBox="0 0 33 32">
<title>kyivstar1</title>
<path fill="#ceecf9" d="M10.628 21.873c0.137-0.151 0.279-0.274 0.317-0.274s-0.043 0.123-0.18 0.274c-0.137 0.151-0.279 0.274-0.317 0.274s0.043-0.123 0.18-0.274zM11.768 21.231c0.099-0.040 0.217-0.035 0.263 0.011s-0.035 0.078-0.18 0.072c-0.16-0.007-0.192-0.039-0.083-0.083zM21.42 15.085c0.003-0.226 0.034-0.302 0.068-0.169s0.032 0.319-0.005 0.411c-0.038 0.093-0.066-0.016-0.063-0.243zM33.335 12.605c0.007-0.16 0.039-0.192 0.083-0.083 0.040 0.099 0.035 0.217-0.011 0.263s-0.078-0.035-0.072-0.18zM1.886 10.4c0.094-0.038 0.249-0.038 0.343 0s0.017 0.069-0.171 0.069c-0.189 0-0.266-0.031-0.171-0.069zM31.105 10.397c0.099-0.040 0.217-0.035 0.263 0.011s-0.035 0.078-0.18 0.072c-0.16-0.007-0.192-0.039-0.083-0.083z"></path>
<path fill="#a0daf8" d="M8.914 31.558c0-0.028 0.108-0.136 0.24-0.24 0.217-0.171 0.222-0.166 0.052 0.052-0.179 0.228-0.292 0.301-0.292 0.188zM23.999 31.405c-0.094-0.113-0.14-0.206-0.102-0.206s0.145 0.093 0.239 0.206c0.094 0.113 0.14 0.206 0.102 0.206s-0.145-0.093-0.239-0.206zM5.375 29.896c0.003-0.226 0.034-0.302 0.068-0.169s0.032 0.319-0.005 0.411c-0.038 0.093-0.066-0.016-0.063-0.243zM13.632 21.839l-0.261-0.309 0.309 0.261c0.29 0.245 0.371 0.356 0.261 0.356-0.026 0-0.165-0.139-0.309-0.309zM19.199 22.096c0-0.028 0.108-0.136 0.24-0.24 0.218-0.171 0.222-0.166 0.052 0.052-0.179 0.228-0.292 0.301-0.292 0.188zM12.18 21.231c0.099-0.040 0.217-0.035 0.263 0.011s-0.035 0.078-0.18 0.072c-0.16-0.007-0.192-0.039-0.083-0.083zM20.811 21.234c0.094-0.038 0.249-0.038 0.343 0s0.017 0.069-0.171 0.069c-0.189 0-0.266-0.031-0.171-0.069zM9.437 17.254c0.099-0.040 0.217-0.035 0.263 0.011s-0.035 0.078-0.18 0.072c-0.16-0.007-0.192-0.039-0.083-0.083zM11.668 15.074c0.007-0.16 0.039-0.192 0.083-0.083 0.040 0.099 0.035 0.217-0.011 0.263s-0.078-0.035-0.072-0.18zM0.274 11.262c0-0.028 0.108-0.136 0.24-0.24 0.218-0.171 0.222-0.166 0.052 0.052-0.179 0.228-0.292 0.301-0.292 0.188zM32.639 11.108c-0.094-0.113-0.14-0.206-0.102-0.206s0.145 0.093 0.239 0.206c0.094 0.113 0.14 0.206 0.102 0.206s-0.145-0.093-0.239-0.206z"></path>
<path fill="#65c4f9" d="M22.079 16.594c-0.094-0.113-0.14-0.206-0.102-0.206s0.145 0.093 0.239 0.206c0.094 0.113 0.14 0.206 0.102 0.206s-0.145-0.093-0.239-0.206zM32.502 14.279c0-0.028 0.108-0.136 0.24-0.24 0.218-0.171 0.222-0.166 0.052 0.052-0.179 0.228-0.292 0.301-0.292 0.188zM17.965 11.536c0-0.028 0.108-0.136 0.24-0.24 0.218-0.171 0.222-0.166 0.052 0.052-0.179 0.228-0.292 0.301-0.292 0.188zM18.712 5.965c0-2.3 0.019-3.242 0.042-2.091s0.023 3.032 0 4.183c-0.023 1.15-0.042 0.209-0.042-2.091zM14.46 5.76c0-2.037 0.019-2.85 0.043-1.809s0.023 2.708-0 3.703c-0.023 0.995-0.043 0.143-0.042-1.894z"></path>
<path fill="#4db9f7" d="M26.879 31.558c0-0.028 0.108-0.136 0.24-0.24 0.218-0.171 0.222-0.166 0.052 0.052-0.179 0.228-0.292 0.301-0.292 0.188zM10.971 13.577c-0.094-0.113-0.14-0.206-0.102-0.206s0.145 0.093 0.239 0.206c0.094 0.113 0.14 0.206 0.102 0.206s-0.145-0.093-0.239-0.206zM16.568 12.043c0.099-0.040 0.217-0.035 0.263 0.011s-0.035 0.078-0.18 0.072c-0.16-0.007-0.192-0.039-0.083-0.083z"></path>
<path fill="#2fadf8" d="M18.799 23.439c0.007-0.16 0.039-0.192 0.083-0.083 0.040 0.099 0.035 0.217-0.011 0.263s-0.078-0.035-0.072-0.18zM10.56 22.096c0-0.028 0.108-0.136 0.24-0.24 0.217-0.171 0.222-0.166 0.052 0.052-0.179 0.228-0.292 0.301-0.292 0.188z"></path>
<path fill="#05a1fa" d="M7.371 31.931c0.094-0.038 0.249-0.038 0.343 0s0.017 0.069-0.171 0.069c-0.189 0-0.266-0.031-0.171-0.069zM25.473 31.931c0.094-0.038 0.249-0.038 0.343 0s0.017 0.069-0.171 0.069c-0.189 0-0.266-0.031-0.171-0.069zM6.754 31.606c-0.17-0.068-0.309-0.151-0.309-0.184 0-0.102 0.548 0.077 0.627 0.205 0.087 0.141 0.084 0.141-0.319-0.021zM24.080 31.35c-0.188-0.208-0.199-0.282-0.056-0.365 0.099-0.057 0.134-0.053 0.077 0.010s-0.001 0.227 0.124 0.365c0.125 0.138 0.196 0.251 0.159 0.251s-0.175-0.117-0.304-0.261zM26.819 31.296c0.052-0.135 0.128-0.211 0.17-0.169s0 0.153-0.094 0.246c-0.135 0.134-0.151 0.119-0.077-0.077zM8.74 30.908c0.093-0.094 0.204-0.136 0.246-0.094s-0.034 0.119-0.169 0.17c-0.195 0.074-0.211 0.059-0.077-0.077zM10.194 29.628c0-0.11 0.052-0.167 0.117-0.128s0.081 0.129 0.038 0.2c-0.111 0.179-0.154 0.159-0.154-0.072zM22.602 29.185c0.099-0.040 0.217-0.035 0.263 0.011s-0.035 0.078-0.18 0.072c-0.16-0.007-0.192-0.039-0.083-0.083zM22.125 28.531c0-0.11 0.052-0.167 0.117-0.128s0.081 0.129 0.038 0.2c-0.111 0.179-0.154 0.159-0.154-0.072zM6.71 27.788c0.075-0.141 0.108-0.285 0.073-0.32s0.024-0.064 0.13-0.064c0.163 0 0.16 0.052-0.016 0.32-0.25 0.382-0.382 0.427-0.188 0.064zM11.466 27.608c0.040-0.064 0.129-0.081 0.2-0.038 0.179 0.111 0.159 0.154-0.072 0.154-0.11 0-0.167-0.052-0.128-0.117zM11.977 27.159c0-0.11 0.052-0.167 0.117-0.128s0.081 0.129 0.038 0.2c-0.111 0.179-0.154 0.159-0.154-0.072zM21.172 27.165c0.042-0.283 0.176-0.402 0.275-0.242 0.044 0.072-0.006 0.203-0.112 0.291-0.152 0.127-0.187 0.116-0.162-0.049zM25.036 25.891c-0.074-0.195-0.059-0.211 0.077-0.077 0.094 0.093 0.136 0.204 0.094 0.246s-0.119-0.034-0.17-0.169zM12.987 25.484c-0.043-0.070 0.038-0.2 0.18-0.289 0.192-0.12 0.284-0.122 0.355-0.006 0.057 0.092 0.035 0.118-0.054 0.063-0.082-0.051-0.207 0.009-0.277 0.134s-0.162 0.169-0.205 0.099zM19.816 25.165c-0.047-0.075-0.019-0.137 0.060-0.137s0.145 0.062 0.145 0.137c0 0.075-0.027 0.137-0.060 0.137s-0.099-0.062-0.145-0.137zM13.587 24.796c-0.016-0.236 0.227-0.349 0.344-0.161 0.059 0.096 0.040 0.124-0.047 0.070-0.081-0.050-0.178-0.013-0.216 0.082-0.050 0.123-0.073 0.126-0.080 0.009zM19.442 24.73c0.080-0.080 0.226-0.118 0.325-0.085 0.103 0.034 0.041 0.096-0.145 0.145-0.228 0.060-0.282 0.042-0.18-0.060zM9.234 24.142c0-0.11 0.051-0.168 0.114-0.129s0.114 0.129 0.114 0.2c0 0.071-0.051 0.129-0.114 0.129s-0.114-0.090-0.114-0.2zM23.451 23.801c0-0.071 0.061-0.167 0.136-0.213 0.078-0.048 0.101 0.007 0.054 0.129-0.091 0.238-0.189 0.281-0.189 0.084zM23.051 23.19c-0.173-0.209-0.34-0.868-0.179-0.707 0.093 0.093 0.108 0.144 0.15 0.495 0.009 0.080 0.069 0.113 0.131 0.075s0.114 0.019 0.114 0.129c0 0.247-0.018 0.247-0.217 0.008zM19.14 22.599c-0.074-0.195-0.059-0.211 0.077-0.077 0.094 0.093 0.136 0.204 0.094 0.246s-0.119-0.034-0.17-0.169zM10.693 22.293c0.079-0.147 0.21-0.309 0.293-0.36s0.045 0.069-0.085 0.267c-0.274 0.419-0.417 0.482-0.208 0.093zM13.659 22.308c-0.039-0.063 0.017-0.114 0.123-0.114s0.162 0.051 0.123 0.114c-0.039 0.063-0.094 0.114-0.123 0.114s-0.084-0.051-0.123-0.114zM19.336 22.096c0-0.028 0.108-0.136 0.24-0.24 0.218-0.171 0.222-0.166 0.052 0.052-0.179 0.228-0.292 0.301-0.292 0.188zM12.754 21.957c0-0.030 0.096-0.091 0.213-0.136 0.122-0.047 0.177-0.024 0.129 0.054-0.081 0.13-0.342 0.193-0.342 0.082zM21.874 21.875c-0.048-0.078 0.007-0.101 0.129-0.054 0.238 0.091 0.281 0.189 0.084 0.189-0.071 0-0.167-0.061-0.213-0.136zM21.093 21.368c0.099-0.040 0.217-0.035 0.263 0.011s-0.035 0.078-0.18 0.072c-0.16-0.007-0.192-0.039-0.083-0.083zM10.171 16.953c-0.145-0.092-0.133-0.135 0.057-0.208 0.132-0.051 0.307-0.025 0.389 0.058 0.107 0.108 0.075 0.122-0.114 0.050-0.183-0.070-0.233-0.052-0.163 0.060 0.117 0.189 0.080 0.198-0.169 0.040zM21.988 16.188c0-0.11 0.052-0.167 0.117-0.128s0.081 0.129 0.038 0.2c-0.111 0.179-0.154 0.159-0.154-0.072zM26.521 16.087c0.137-0.077 0.3-0.086 0.365-0.022s-0.046 0.127-0.248 0.139c-0.314 0.019-0.33 0.002-0.117-0.117zM5.86 15.96c0.093-0.094 0.204-0.136 0.246-0.094s-0.034 0.119-0.169 0.17c-0.195 0.074-0.211 0.059-0.077-0.077zM28.456 15.565c-0.224-0.096-0.231-0.12-0.042-0.127 0.128-0.005 0.27 0.052 0.317 0.127 0.097 0.158 0.093 0.158-0.274 0zM31.889 14.475c-0.044-0.072 0.034-0.192 0.175-0.267 0.19-0.102 0.255-0.090 0.255 0.049 0 0.108-0.085 0.152-0.205 0.106-0.134-0.051-0.171-0.023-0.106 0.082 0.055 0.088 0.068 0.16 0.031 0.16s-0.105-0.059-0.149-0.13zM0.358 13.757c0.040-0.064 0.129-0.081 0.2-0.038 0.179 0.111 0.159 0.154-0.072 0.154-0.11 0-0.167-0.052-0.128-0.117zM32.976 13.225c-0.050-0.080-0.061-0.176-0.025-0.212s0.102 0.030 0.147 0.146c0.093 0.242 0.014 0.284-0.122 0.065zM9.325 13.105c0-0.071 0.061-0.167 0.136-0.213 0.078-0.048 0.101 0.007 0.054 0.129-0.091 0.238-0.189 0.281-0.189 0.084zM0.148 12.88c0.007-0.16 0.039-0.192 0.083-0.083 0.040 0.099 0.035 0.217-0.011 0.263s-0.078-0.035-0.072-0.18zM32.935 12.548c0-0.189 0.031-0.266 0.069-0.171s0.038 0.249 0 0.343c-0.038 0.094-0.069 0.017-0.069-0.171zM0.215 11.765c-0.074-0.195-0.059-0.211 0.077-0.077 0.094 0.093 0.136 0.204 0.094 0.246s-0.119-0.034-0.17-0.169zM17.302 11.742c-0.145-0.092-0.133-0.135 0.057-0.208 0.132-0.051 0.307-0.025 0.389 0.058 0.107 0.108 0.075 0.122-0.114 0.050-0.183-0.070-0.233-0.052-0.163 0.060 0.117 0.189 0.080 0.198-0.169 0.040zM15.46 11.571c0.093-0.094 0.204-0.136 0.246-0.094s-0.034 0.119-0.169 0.17c-0.195 0.074-0.211 0.059-0.077-0.077zM27.909 11.59c-0.048-0.078 0.007-0.101 0.129-0.054 0.238 0.091 0.281 0.189 0.084 0.189-0.071 0-0.167-0.061-0.213-0.136zM0.494 11.337c-0.039-0.063 0.016-0.114 0.123-0.114s0.162 0.051 0.123 0.114c-0.039 0.063-0.094 0.114-0.123 0.114s-0.084-0.051-0.123-0.114zM32.092 11.044c-0.162-0.102-0.142-0.124 0.093-0.107 0.164 0.012 0.267 0.071 0.23 0.131-0.082 0.133-0.074 0.134-0.324-0.024zM1.166 10.902c0.047-0.075 0.146-0.137 0.222-0.137s0.099 0.062 0.052 0.137c-0.047 0.075-0.146 0.137-0.222 0.137s-0.099-0.062-0.052-0.137zM2.88 10.986c0-0.030 0.096-0.091 0.213-0.136 0.122-0.047 0.177-0.024 0.129 0.054-0.081 0.13-0.342 0.193-0.342 0.082zM29.966 10.904c-0.048-0.078 0.007-0.101 0.129-0.054 0.238 0.091 0.281 0.189 0.084 0.189-0.071 0-0.167-0.061-0.213-0.136zM1.746 10.538c0.093-0.038 0.278-0.040 0.411-0.005s0.057 0.066-0.169 0.068c-0.226 0.003-0.335-0.026-0.243-0.063zM30.956 10.538c0.093-0.038 0.278-0.040 0.411-0.005s0.057 0.066-0.169 0.068c-0.226 0.003-0.335-0.026-0.243-0.063z"></path>
<path fill="#009efc" d="M6.47 31.606c-0.546-0.333-0.996-1.259-0.917-1.887 0.074-0.582 0.394-1.223 0.904-1.812 0.259-0.298 0.359-0.363 0.266-0.171-0.205 0.419-0.089 0.39 0.2-0.051 0.13-0.198 0.168-0.318 0.084-0.266-0.232 0.144-0.181-0.045 0.133-0.486 0.157-0.22 0.351-0.359 0.433-0.309 0.087 0.053 0.108 0.027 0.052-0.063-0.126-0.203 0.316-0.871 0.501-0.757 0.079 0.049 0.105 0.027 0.059-0.047-0.104-0.169 0.293-0.76 0.447-0.664 0.062 0.038 0.104-0.038 0.093-0.169s0.056-0.224 0.148-0.206c0.092 0.018 0.135-0.049 0.097-0.149s0.037-0.269 0.168-0.375c0.154-0.125 0.202-0.133 0.135-0.022-0.058 0.097-0.036 0.171 0.052 0.171 0.085 0 0.12-0.108 0.079-0.24-0.1-0.316 1.366-2.229 1.908-2.49 0.699-0.336 2.298-0.128 2.054 0.267-0.044 0.071 0.012 0.093 0.125 0.050 0.281-0.108 0.771 0.88 0.768 1.55-0.002 0.52-0.507 1.606-0.756 1.629-0.299 0.027-0.606 0.231-0.53 0.354 0.045 0.072 0.166 0.019 0.269-0.117s0.19-0.195 0.193-0.13c0.009 0.247-1.281 1.855-1.424 1.774-0.082-0.047-0.105-0.036-0.051 0.024 0.13 0.144-0.146 0.65-0.301 0.554-0.066-0.041-0.165-0.002-0.22 0.086-0.062 0.1-0.040 0.124 0.059 0.063 0.285-0.176 0.168 0.061-0.471 0.957-0.346 0.485-0.675 0.854-0.731 0.819s-0.102 0.013-0.102 0.107c0 0.093-0.112 0.341-0.25 0.551-0.191 0.291-0.279 0.339-0.375 0.201-0.088-0.126-0.103-0.098-0.053 0.095 0.087 0.332-0.525 1.093-0.761 0.947-0.095-0.059-0.121-0.038-0.064 0.054 0.291 0.471-1.498 0.601-2.22 0.161zM7.073 31.627c-0.079-0.128-0.627-0.307-0.627-0.205 0 0.033 0.139 0.116 0.309 0.184 0.402 0.162 0.406 0.162 0.319 0.021zM8.986 30.814c-0.042-0.042-0.153-0-0.246 0.094-0.134 0.135-0.119 0.151 0.077 0.077 0.135-0.052 0.211-0.128 0.169-0.17zM13.766 24.678c0.047-0.122 0.024-0.177-0.054-0.129-0.075 0.046-0.136 0.142-0.136 0.213 0 0.197 0.098 0.154 0.189-0.084zM10.901 22.199c0.13-0.198 0.168-0.318 0.085-0.267-0.158 0.098-0.478 0.626-0.378 0.626 0.032 0 0.164-0.162 0.293-0.36zM13.096 21.875c0.048-0.078-0.007-0.101-0.129-0.054-0.238 0.091-0.281 0.189-0.084 0.189 0.071 0 0.167-0.061 0.213-0.136zM24.822 31.788c-0.33-0.121-0.821-0.618-0.74-0.749 0.041-0.066-0.007-0.104-0.107-0.083s-0.173-0.069-0.163-0.201c0.010-0.131-0.029-0.209-0.087-0.173-0.167 0.103-0.447-0.312-0.334-0.495 0.063-0.101 0.043-0.128-0.050-0.071-0.177 0.109-0.477-0.375-0.332-0.535 0.054-0.060 0.025-0.067-0.064-0.016s-0.201 0.030-0.248-0.047c-0.047-0.077-0.005-0.14 0.093-0.141s0.025-0.080-0.163-0.176c-0.189-0.096-0.344-0.276-0.345-0.4s-0.057-0.276-0.125-0.338c-0.070-0.064-0.081-0.039-0.024 0.059 0.224 0.39-0.038 0.129-0.455-0.451-0.348-0.484-0.412-0.664-0.291-0.811 0.107-0.129 0.111-0.216 0.012-0.277-0.136-0.084-0.196 0.005-0.16 0.236 0.038 0.238-0.137 0.051-0.796-0.855-0.691-0.95-0.823-1.194-0.56-1.031 0.075 0.047 0.137 0.017 0.137-0.067s-0.102-0.133-0.226-0.111c-0.272 0.049-0.413-0.254-0.159-0.34 0.098-0.033 0.070-0.044-0.064-0.024-0.541 0.082-0.85-1.348-0.456-2.106 0.49-0.941 1.354-1.324 2.408-1.068 0.513 0.125 0.729 0.293 1.333 1.040 0.508 0.628 0.699 0.973 0.648 1.166-0.055 0.204-0.040 0.226 0.058 0.084 0.107-0.155 0.159-0.139 0.278 0.085 0.081 0.151 0.103 0.324 0.049 0.383s-0.028 0.068 0.058 0.019c0.196-0.112 0.643 0.547 0.514 0.756-0.055 0.088-0.034 0.117 0.047 0.066 0.178-0.11 0.439 0.193 0.518 0.599 0.032 0.169 0.102 0.345 0.154 0.391s0.053-0.039 0.003-0.19c-0.074-0.221-0.039-0.208 0.181 0.069 0.262 0.329 0.331 0.497 0.295 0.72-0.009 0.057 0.040 0.087 0.109 0.069 0.241-0.066 1.76 2.23 1.85 2.797 0.152 0.949-0.769 2.428-1.305 2.096-0.104-0.064-0.128-0.043-0.067 0.057 0.069 0.112-0.096 0.155-0.562 0.148-0.363-0.006-0.752-0.045-0.865-0.086zM26.99 31.127c-0.042-0.042-0.119 0.034-0.17 0.169-0.074 0.195-0.059 0.211 0.077 0.077 0.094-0.093 0.136-0.204 0.094-0.246zM23.095 23.039c-0.124-0.189-0.252-0.343-0.286-0.343-0.067 0 0.062 0.248 0.268 0.514 0.236 0.305 0.249 0.181 0.018-0.171zM22.216 21.957c0-0.030-0.096-0.091-0.213-0.136-0.122-0.047-0.177-0.024-0.129 0.054 0.081 0.13 0.342 0.193 0.342 0.082zM8.867 17.030c-0.304-0.094-0.478-0.215-0.411-0.287s0.044-0.084-0.056-0.026c-0.2 0.115-2.107-0.467-2.016-0.615 0.034-0.055-0.077-0.069-0.247-0.032-0.255 0.056-0.273 0.040-0.103-0.090 0.168-0.129 0.15-0.142-0.103-0.071-0.38 0.107-3.482-0.886-3.364-1.077 0.045-0.072 0.011-0.088-0.074-0.035-0.217 0.134-1.269-0.2-1.164-0.37 0.048-0.077 0.017-0.096-0.069-0.043-0.171 0.106-0.848-0.284-0.848-0.488 0-0.071 0.071-0.085 0.158-0.032 0.099 0.061 0.121 0.038 0.059-0.063-0.055-0.088-0.157-0.125-0.227-0.082-0.173 0.107-0.402-0.531-0.402-1.119 0-0.535 0.358-1.337 0.545-1.221 0.067 0.041 0.166 0.003 0.221-0.085 0.062-0.1 0.040-0.124-0.059-0.063-0.087 0.054-0.158 0.046-0.158-0.018 0-0.237 0.816-0.586 1.371-0.586 0.693 0 3.326 0.793 3.217 0.969-0.042 0.069 0.010 0.091 0.116 0.050s1.236 0.264 2.51 0.678c2.825 0.917 2.811 0.912 2.729 1.044-0.036 0.059 0.041 0.099 0.172 0.088s0.222 0.062 0.201 0.163c-0.021 0.1 0.023 0.144 0.097 0.098 0.218-0.135 0.581 0.729 0.581 1.383 0 1.409-1.306 2.35-2.675 1.928zM10.422 16.799c0.113-0.073 0.144-0.133 0.069-0.133s-0.23 0.060-0.343 0.133c-0.113 0.073-0.144 0.133-0.069 0.133s0.23-0.060 0.343-0.133zM0.231 12.797c-0.044-0.109-0.076-0.077-0.083 0.083-0.006 0.145 0.026 0.226 0.072 0.18s0.050-0.164 0.011-0.263zM1.44 10.902c0.047-0.075 0.023-0.137-0.052-0.137s-0.175 0.062-0.222 0.137c-0.047 0.075-0.023 0.137 0.052 0.137s0.175-0.062 0.222-0.137zM23.069 17.059c-0.248-0.073-0.417-0.188-0.375-0.255s0.003-0.167-0.085-0.222c-0.1-0.062-0.124-0.040-0.063 0.059 0.142 0.229-0.129 0.195-0.325-0.041-0.091-0.11-0.129-0.26-0.083-0.333s0.010-0.178-0.078-0.233c-0.106-0.066-0.127-0.034-0.061 0.093 0.055 0.106 0.003 0.073-0.116-0.074-0.321-0.396-0.281-1.516 0.075-2.092 0.174-0.282 0.366-0.441 0.478-0.398 0.103 0.040 0.173-0.003 0.155-0.094-0.021-0.105 1.444-0.659 3.944-1.493 4.148-1.383 5.076-1.571 5.631-1.142 0.262 0.203 0.262 0.205-0.008 0.124-0.209-0.062-0.228-0.049-0.081 0.056 0.106 0.076 0.261 0.114 0.343 0.085 0.26-0.091 0.671 0.643 0.736 1.313 0.072 0.753-0.243 1.548-0.745 1.877-0.514 0.337-5.16 1.837-5.465 1.764-0.151-0.036-0.367-0.002-0.48 0.075-0.155 0.106-0.122 0.12 0.138 0.056 0.299-0.073 0.311-0.064 0.092 0.073-0.138 0.086-0.37 0.126-0.514 0.088s-0.232-0.019-0.195 0.042c0.038 0.061-0.348 0.236-0.857 0.39-1.323 0.398-1.557 0.43-2.062 0.282zM28.625 15.482c-0.046-0.046-0.164-0.050-0.263-0.011-0.109 0.044-0.077 0.076 0.083 0.083 0.145 0.006 0.226-0.026 0.18-0.072zM32.364 14.116c0-0.038-0.123-0.002-0.274 0.078s-0.274 0.178-0.274 0.215c0 0.038 0.123 0.002 0.274-0.078s0.274-0.178 0.274-0.215zM33.004 12.377c-0.038-0.094-0.069-0.017-0.069 0.171s0.031 0.266 0.069 0.171c0.038-0.094 0.038-0.249 0-0.343zM15.858 11.835c-0.302-0.11-0.35-0.173-0.206-0.272 0.132-0.091 0.099-0.105-0.114-0.045-0.225 0.063-0.358-0.003-0.526-0.259-0.124-0.189-0.179-0.418-0.124-0.508 0.061-0.098 0.044-0.129-0.042-0.075-0.079 0.049-0.181-0.008-0.227-0.127s-0.083-2.202-0.083-4.63c0-4.034 0.022-4.454 0.254-4.887 0.409-0.762 0.879-1.031 1.803-1.031 0.864 0 1.595 0.376 1.559 0.802-0.010 0.118 0.052 0.202 0.137 0.186s0.151 0.107 0.145 0.273c-0.006 0.166 0.041 0.27 0.103 0.232 0.128-0.079 0.158 8.722 0.030 9.054-0.046 0.119-0.137 0.182-0.204 0.141s-0.081 0.031-0.031 0.16c0.057 0.148 0.037 0.202-0.055 0.146-0.082-0.051-0.137 0.013-0.126 0.149 0.012 0.154-0.198 0.348-0.593 0.547-0.66 0.333-1.084 0.369-1.701 0.144zM17.554 11.588c0.113-0.073 0.144-0.133 0.069-0.133s-0.23 0.060-0.343 0.133c-0.113 0.073-0.144 0.133-0.069 0.133s0.23-0.060 0.343-0.133z"></path>
</svg>
