<!-- Generated by IcoMoon.io -->
<svg version="1.1" xmlns="http://www.w3.org/2000/svg" width="32" height="32" viewBox="0 0 32 32">
<title>login</title>
<path d="M31.251 25.030v-18.059c0-2.488-2.030-4.518-4.518-4.518h-14.596c-2.488 0-4.518 2.030-4.518 4.518v2.925c0 0.495 0.4 0.895 0.895 0.895s0.895-0.4 0.895-0.895v-2.925c0-1.506 1.23-2.736 2.736-2.736h14.588c1.506 0 2.736 1.23 2.736 2.736v18.059c0 1.506-1.23 2.736-2.736 2.736h-14.596c-1.506 0-2.736-1.23-2.736-2.736v-2.925c0-0.495-0.4-0.895-0.895-0.895s-0.895 0.4-0.895 0.895v2.925c0 2.488 2.030 4.518 4.518 4.518h14.603c2.488 0 4.518-2.023 4.518-4.518z"></path>
<path d="M21.144 15.367l-6.105-6.105c-0.349-0.349-0.909-0.349-1.259 0s-0.349 0.909 0 1.259l4.584 4.584h-16.728c-0.495 0-0.895 0.4-0.895 0.895s0.4 0.895 0.895 0.895h16.72l-4.584 4.584c-0.349 0.349-0.349 0.91 0 1.259 0.175 0.175 0.4 0.262 0.633 0.262s0.458-0.087 0.633-0.262l6.105-6.105c0.349-0.349 0.349-0.917 0-1.266z"></path>
</svg>
