<!-- Generated by IcoMoon.io -->
<svg version="1.1" xmlns="http://www.w3.org/2000/svg" width="32" height="32" viewBox="0 0 32 32">
<title>sticker</title>
<path d="M30.592 16.511c-0.269-0.367-0.275-0.871-0.007-1.244l0.557-0.792c0.439-0.622 0.596-1.408 0.419-2.155s-0.661-1.382-1.336-1.742l-0.851-0.458c-0.406-0.216-0.622-0.661-0.55-1.113l0.157-0.956c0.124-0.753-0.079-1.526-0.557-2.122-0.485-0.596-1.199-0.956-1.958-0.989l-0.969-0.033c-0.458-0.020-0.851-0.327-0.976-0.766l-0.269-0.93c-0.327-1.133-1.382-1.925-2.567-1.925-0.36 0-0.72 0.072-1.054 0.216l-0.891 0.38c-0.413 0.177-0.917 0.065-1.212-0.269l-0.648-0.72c-0.504-0.563-1.231-0.891-1.984-0.891-0.773 0-1.506 0.334-2.017 0.917l-0.629 0.74c-0.295 0.341-0.792 0.458-1.212 0.288l-0.897-0.367c-0.327-0.131-0.668-0.203-1.015-0.203-1.199 0-2.26 0.806-2.574 1.965l-0.255 0.93c-0.118 0.439-0.511 0.753-0.963 0.779l-0.963 0.059c-0.766 0.046-1.474 0.413-1.945 1.015s-0.661 1.375-0.524 2.129l0.177 0.95c0.085 0.452-0.131 0.904-0.53 1.126l-0.845 0.472c-0.668 0.373-1.146 1.015-1.31 1.762s0 1.533 0.452 2.148l0.57 0.779c0.269 0.367 0.275 0.871 0.007 1.244l-0.557 0.792c-0.439 0.622-0.596 1.408-0.419 2.155s0.661 1.375 1.336 1.742l0.851 0.458c0.406 0.216 0.622 0.661 0.55 1.113l-0.164 0.956c-0.124 0.753 0.079 1.526 0.557 2.122 0.485 0.596 1.199 0.956 1.958 0.989l0.969 0.039c0.458 0.020 0.851 0.327 0.976 0.766l0.269 0.93c0.327 1.133 1.382 1.925 2.567 1.925v0c0.36 0 0.72-0.072 1.054-0.216l0.891-0.38c0.413-0.177 0.917-0.066 1.212 0.269l0.648 0.72c0.504 0.563 1.231 0.884 1.984 0.884 0.773 0 1.506-0.334 2.017-0.917l0.629-0.74c0.295-0.341 0.792-0.458 1.212-0.288l0.897 0.367c0.327 0.131 0.668 0.203 1.015 0.203 1.199 0 2.26-0.806 2.574-1.965l0.255-0.93c0.118-0.439 0.511-0.753 0.963-0.779l0.963-0.052c0.766-0.046 1.474-0.413 1.945-1.015s0.661-1.375 0.524-2.129l-0.177-0.95c-0.085-0.452 0.131-0.904 0.53-1.12l0.845-0.472c0.668-0.373 1.146-1.015 1.31-1.762s0-1.533-0.452-2.148l-0.563-0.792zM30.048 19.098c-0.066 0.301-0.255 0.55-0.524 0.701l-0.845 0.472c-1.002 0.557-1.539 1.69-1.329 2.816l0.177 0.95c0.059 0.301-0.020 0.609-0.21 0.851s-0.465 0.386-0.773 0.406l-0.963 0.052c-1.146 0.066-2.115 0.851-2.423 1.958l-0.255 0.93c-0.124 0.465-0.55 0.786-1.028 0.786-0.138 0-0.275-0.026-0.406-0.079l-0.897-0.367c-0.327-0.131-0.668-0.203-1.015-0.203-0.773 0-1.506 0.334-2.017 0.917l-0.635 0.727c-0.203 0.236-0.491 0.367-0.806 0.367-0.308 0-0.589-0.124-0.792-0.354l-0.648-0.72c-0.504-0.563-1.231-0.891-1.991-0.891-0.367 0-0.72 0.072-1.054 0.216l-0.891 0.38c-0.138 0.059-0.275 0.085-0.419 0.085-0.472 0-0.891-0.314-1.022-0.766l-0.269-0.93c-0.321-1.1-1.303-1.873-2.449-1.925l-0.969-0.039c-0.308-0.013-0.589-0.151-0.779-0.393-0.196-0.242-0.275-0.544-0.223-0.845l0.164-0.956c0.19-1.133-0.36-2.253-1.375-2.797l-0.851-0.458c-0.275-0.144-0.465-0.393-0.53-0.694-0.072-0.301-0.013-0.609 0.164-0.858l0.557-0.792c0.661-0.937 0.655-2.187-0.026-3.117l-0.57-0.779c-0.183-0.249-0.249-0.557-0.177-0.858 0.065-0.301 0.255-0.55 0.524-0.701l0.845-0.472c1.002-0.557 1.539-1.69 1.329-2.816l-0.17-0.937c-0.059-0.308 0.020-0.609 0.21-0.851s0.465-0.386 0.773-0.406l0.963-0.059c1.146-0.066 2.115-0.851 2.423-1.958l0.255-0.937c0.124-0.458 0.55-0.786 1.028-0.786 0.138 0 0.275 0.026 0.406 0.079l0.897 0.367c0.327 0.131 0.668 0.203 1.015 0.203 0.773 0 1.506-0.334 2.017-0.917l0.635-0.727c0.203-0.236 0.491-0.367 0.806-0.367 0.308 0 0.589 0.124 0.792 0.354l0.648 0.72c0.504 0.563 1.231 0.891 1.991 0.891 0.367 0 0.72-0.072 1.054-0.216l0.891-0.38c0.138-0.059 0.275-0.085 0.419-0.085 0.472 0 0.891 0.314 1.022 0.766l0.269 0.93c0.321 1.1 1.303 1.873 2.449 1.925l0.969 0.039c0.308 0.013 0.589 0.151 0.779 0.393 0.196 0.242 0.275 0.544 0.223 0.845l-0.157 0.956c-0.19 1.133 0.36 2.253 1.375 2.797l0.851 0.458c0.275 0.144 0.465 0.393 0.537 0.694s0.013 0.609-0.164 0.858l-0.557 0.792c-0.661 0.937-0.655 2.187 0.026 3.117l0.57 0.779c0.157 0.249 0.223 0.55 0.157 0.858z"></path>
<path d="M18.836 10.656c-1.041 0-2.037 0.354-2.836 0.995-0.806-0.648-1.794-1.002-2.842-1.002-1.205 0-2.338 0.472-3.196 1.323s-1.323 1.991-1.323 3.196 0.472 2.338 1.329 3.196l5.063 5.063c0.255 0.262 0.603 0.399 0.969 0.399s0.714-0.144 0.969-0.399l5.056-5.056c0.851-0.851 1.323-1.991 1.329-3.196 0-1.212-0.472-2.345-1.323-3.203-0.851-0.845-1.984-1.316-3.196-1.316zM20.892 17.244l-4.892 4.892-4.899-4.899c-0.55-0.55-0.858-1.284-0.858-2.063s0.301-1.513 0.851-2.063 1.284-0.851 2.056-0.851c0.779 0 1.513 0.308 2.070 0.858l0.21 0.21c0.301 0.301 0.832 0.301 1.133 0l0.203-0.203c0.55-0.55 1.284-0.858 2.063-0.858s1.513 0.301 2.063 0.851 0.851 1.284 0.851 2.063c0.007 0.779-0.295 1.513-0.851 2.063z"></path>
</svg>
