<!-- Generated by IcoMoon.io -->
<svg version="1.1" xmlns="http://www.w3.org/2000/svg" width="16" height="16" viewBox="0 0 16 16">
<title>book</title>
<path fill="#95e1d3" d="M15.533 12.944l-7.236 2.994c-0.091 0.040-0.191 0.062-0.297 0.062s-0.206-0.022-0.297-0.062l-7.236-2.994c-0.274-0.111-0.468-0.38-0.468-0.694v-11.5c0-0.414 0.336-0.75 0.75-0.75 0.102 0 0.199 0.021 0.286 0.057h0l0.001 0.001c0.002 0.001 0.004 0.002 0.006 0.003l6.955 2.878 6.956-2.878c0.002-0.001 0.005-0.002 0.007-0.003l0.002-0.001c0.088-0.036 0.185-0.057 0.287-0.057 0.414 0 0.75 0.336 0.75 0.75v11.5c0 0.314-0.194 0.583-0.467 0.694zM7.25 4.252l-5.75-2.38v9.877l5.75 2.38v-9.877zM14.5 1.872l-5.75 2.38v9.877l5.75-2.38v-9.877zM9.94 5.317l2.75-1.25c0.095-0.043 0.2-0.067 0.31-0.067 0.414 0 0.75 0.335 0.75 0.75 0 0.303-0.181 0.564-0.44 0.683v0l-2.75 1.25c-0.095 0.043-0.2 0.067-0.31 0.067-0.414 0-0.75-0.336-0.75-0.75 0-0.303 0.181-0.565 0.44-0.683zM9.94 8.067v0l2.75-1.25c0.095-0.043 0.2-0.067 0.31-0.067 0.414 0 0.75 0.335 0.75 0.75 0 0.303-0.181 0.565-0.44 0.682l-2.75 1.25c-0.095 0.043-0.2 0.068-0.31 0.068-0.414 0-0.75-0.336-0.75-0.75 0-0.303 0.181-0.565 0.44-0.683zM9.94 10.817v0l2.75-1.25c0.095-0.043 0.2-0.067 0.31-0.067 0.414 0 0.75 0.335 0.75 0.75 0 0.303-0.181 0.565-0.44 0.682v0l-2.75 1.25c-0.095 0.043-0.2 0.068-0.31 0.068-0.414 0-0.75-0.336-0.75-0.75 0-0.303 0.181-0.565 0.44-0.683zM3 4c0.111 0 0.216 0.024 0.311 0.067v0l2.75 1.25c0.259 0.118 0.439 0.38 0.439 0.683 0 0.414-0.336 0.75-0.75 0.75-0.111 0-0.216-0.024-0.311-0.067v0l-2.75-1.25c-0.259-0.118-0.439-0.379-0.439-0.683 0-0.415 0.336-0.75 0.75-0.75zM3 6.75c0.111 0 0.216 0.024 0.311 0.067v0l2.75 1.25c0.259 0.118 0.439 0.38 0.439 0.683 0 0.414-0.336 0.75-0.75 0.75-0.111 0-0.216-0.024-0.311-0.068v0.001l-2.75-1.251c-0.259-0.118-0.439-0.379-0.439-0.683 0-0.415 0.336-0.75 0.75-0.75zM3 9.5c0.111 0 0.216 0.024 0.311 0.067v0l2.75 1.25c0.259 0.118 0.439 0.38 0.439 0.683 0 0.414-0.336 0.75-0.75 0.75-0.111 0-0.216-0.024-0.311-0.068v0l-2.75-1.25c-0.259-0.118-0.439-0.379-0.439-0.682 0-0.415 0.336-0.75 0.75-0.75z"></path>
</svg>
