<!-- Generated by IcoMoon.io -->
<svg version="1.1" xmlns="http://www.w3.org/2000/svg" width="16" height="16" viewBox="0 0 16 16">
<title>dribbble</title>
<path fill="#95e1d3" d="M15.837 6.404c-0.104-0.513-0.262-1.020-0.466-1.504-0.2-0.475-0.449-0.931-0.738-1.359-0.286-0.423-0.614-0.821-0.976-1.183s-0.76-0.69-1.184-0.977c-0.427-0.289-0.885-0.537-1.359-0.737-0.483-0.204-0.989-0.362-1.503-0.467-0.527-0.108-1.069-0.162-1.611-0.162s-1.084 0.054-1.611 0.162c-0.514 0.105-1.020 0.263-1.504 0.467-0.474 0.2-0.931 0.448-1.359 0.737-0.423 0.287-0.822 0.615-1.183 0.977-0.362 0.362-0.69 0.76-0.976 1.183-0.289 0.428-0.538 0.884-0.738 1.359-0.205 0.484-0.362 0.991-0.467 1.504-0.108 0.526-0.162 1.069-0.162 1.61 0 0.543 0.054 1.086 0.162 1.612 0.105 0.514 0.262 1.020 0.467 1.503 0.2 0.475 0.449 0.933 0.738 1.36 0.286 0.424 0.614 0.821 0.976 1.183 0.361 0.362 0.76 0.69 1.183 0.976 0.428 0.289 0.885 0.538 1.359 0.738 0.484 0.205 0.99 0.361 1.504 0.466 0.527 0.109 1.069 0.164 1.611 0.164s1.084-0.055 1.611-0.164c0.514-0.105 1.020-0.261 1.503-0.466 0.474-0.2 0.932-0.449 1.359-0.738 0.424-0.286 0.822-0.614 1.184-0.976s0.69-0.759 0.976-1.183c0.289-0.427 0.538-0.885 0.738-1.36 0.204-0.483 0.362-0.989 0.466-1.503 0.109-0.526 0.163-1.069 0.163-1.612 0-0.541-0.054-1.084-0.163-1.61zM14.83 7.947c-0.099-0.022-2.411-0.519-4.759-0.224-0.048-0.117-0.096-0.234-0.147-0.353-0.142-0.334-0.295-0.665-0.454-0.991 2.698-1.101 3.794-2.686 3.807-2.704 0.958 1.163 1.537 2.651 1.553 4.272zM12.513 2.888c-0.017 0.026-0.99 1.507-3.569 2.473-1.168-2.146-2.451-3.851-2.554-3.986 0.516-0.125 1.055-0.193 1.61-0.193 1.73 0 3.309 0.645 4.513 1.706zM6.364 1.381c-0.001 0-0.002 0.001-0.002 0.001s-0.007 0.002-0.020 0.005c0.007-0.003 0.014-0.004 0.022-0.006zM5.085 1.836c0.091 0.121 1.354 1.835 2.537 3.936-3.281 0.872-6.128 0.838-6.308 0.834 0.444-2.116 1.865-3.87 3.771-4.77zM1.168 8.014c0-0.072 0.003-0.144 0.005-0.216 0.121 0.003 3.497 0.080 7.015-0.972 0.196 0.382 0.383 0.772 0.554 1.16-0.090 0.026-0.18 0.053-0.269 0.082-3.687 1.192-5.557 4.51-5.557 4.51s0.002 0.001 0.002 0.003c-1.088-1.211-1.75-2.811-1.75-4.567zM8 14.847c-1.654 0-3.17-0.587-4.352-1.566 0.090 0.073 0.153 0.12 0.153 0.12s1.31-2.857 5.362-4.268c0.015-0.005 0.030-0.010 0.045-0.014 0.961 2.498 1.358 4.59 1.459 5.188-0.819 0.348-1.721 0.54-2.667 0.54zM11.818 13.682c-0.070-0.413-0.434-2.418-1.33-4.88 2.206-0.353 4.117 0.251 4.258 0.298-0.304 1.903-1.394 3.546-2.928 4.582z"></path>
</svg>
