<!-- Generated by IcoMoon.io -->
<svg version="1.1" xmlns="http://www.w3.org/2000/svg" width="16" height="16" viewBox="0 0 16 16">
<title>facebook</title>
<path fill="#fff" d="M11.689 0.006c0 0.908 0 2.536 0 2.536s-1.869-0.186-2.337 0.53c-0.256 0.391-0.104 1.538-0.127 2.362 0.816 0 1.663 0 2.479 0-0.209 0.962-0.359 1.615-0.514 2.448-0.706 0-1.979 0-1.979 0v7.879c0 0-2.337 0-3.435 0 0.001-2.429-0.001-5.263 0-7.849-0.534 0-0.928 0-1.462 0 0-0.908 0-1.57 0-2.479 0.518 0 0.927 0 1.446 0 0.074-1.813 0.102-3.609 1.002-4.523 1.012-1.028 1.977-0.905 4.926-0.905z"></path>
</svg>
