<!-- Generated by IcoMoon.io -->
<svg version="1.1" xmlns="http://www.w3.org/2000/svg" width="16" height="16" viewBox="0 0 16 16">
<title>graph</title>
<path fill="#95e1d3" d="M15.25 16h-14.5c-0.414 0-0.75-0.336-0.75-0.75v-14.5c0-0.414 0.336-0.75 0.75-0.75h14.5c0.414 0 0.75 0.336 0.75 0.75v14.5c0 0.414-0.336 0.75-0.75 0.75zM14.5 1.5h-13v13h13v-13zM2.607 8.12v-0.001l2-1.249c0.114-0.071 0.248-0.111 0.393-0.111 0.155 0 0.3 0.048 0.42 0.129l0.003-0.005 3.316 2.21 3.819-2.696c0.124-0.091 0.277-0.144 0.443-0.144 0.414 0 0.75 0.335 0.75 0.75 0 0.25-0.123 0.471-0.311 0.608h0.001l-4.25 3c-0.123 0.089-0.275 0.142-0.439 0.142-0.161 0-0.309-0.050-0.431-0.136l-3.329-2.219-1.567 0.98c-0.12 0.082-0.267 0.131-0.423 0.131-0.414 0-0.75-0.335-0.75-0.75 0-0.271 0.143-0.507 0.357-0.639z"></path>
</svg>
