<!-- Generated by IcoMoon.io -->
<svg version="1.1" xmlns="http://www.w3.org/2000/svg" width="16" height="16" viewBox="0 0 16 16">
<title>home</title>
<path fill="#95e1d3" d="M16 8.25c0 0.414-0.336 0.75-0.75 0.75-0.197 0-0.376-0.078-0.51-0.203l-0.002 0.002-6.739-6.738-6.723 6.723c-0.135 0.133-0.322 0.216-0.526 0.216-0.414 0-0.75-0.336-0.75-0.75 0-0.213 0.088-0.404 0.231-0.54l7.229-7.229c0.136-0.141 0.328-0.23 0.54-0.23v0 0c0 0 0 0 0.001 0 0.013 0 0.026 0 0.040 0.001 0.002 0 0.004 0.001 0.006 0.001 0.011 0.001 0.023 0.002 0.034 0.003 0.001 0 0.001 0 0.002 0 0.184 0.020 0.347 0.106 0.466 0.234l0.001-0.001 2.951 2.951v-0.689c0-0.414 0.335-0.75 0.75-0.75s0.75 0.336 0.75 0.75v2.189l2.799 2.799-0.002 0.002c0.125 0.134 0.203 0.312 0.203 0.51zM14.5 9.5v5.25c0 0.414-0.336 0.75-0.75 0.75h-1.5v-6h-3v6h-7c-0.414 0-0.75-0.336-0.75-0.75v-5.25l6.5-6.5 6.5 6.5zM6.75 9.5h-3v3h3v-3z"></path>
</svg>
