<!-- Generated by IcoMoon.io -->
<svg version="1.1" xmlns="http://www.w3.org/2000/svg" width="16" height="16" viewBox="0 0 16 16">
<title>location</title>
<path fill="#f38181" d="M8.058 15.76c0 0-5.908-6.584-5.908-9.846s2.645-5.908 5.908-5.908c3.263 0 5.908 2.646 5.908 5.908s-5.908 9.846-5.908 9.846zM8.058 1.975c-2.175 0-3.938 1.763-3.938 3.938s1.764 3.938 3.938 3.938 3.938-1.764 3.938-3.938c0-2.175-1.764-3.938-3.938-3.938zM8.058 7.883c-1.087 0-1.969-0.882-1.969-1.969s0.882-1.969 1.969-1.969 1.969 0.881 1.969 1.969c0 1.087-0.882 1.969-1.969 1.969z"></path>
</svg>
