<!-- Generated by IcoMoon.io -->
<svg version="1.1" xmlns="http://www.w3.org/2000/svg" width="16" height="16" viewBox="0 0 16 16">
<title>search</title>
<path d="M15.607 13.526c-0.012-0.012-0.023-0.021-0.034-0.031-1.742-1.514-2.948-2.614-3.551-3.172-0.075-0.053-0.141-0.116-0.201-0.186-0.148-0.18-0.236-0.409-0.236-0.66 0-0.044 0.003-0.088 0.008-0.132 0.012-0.088 0.033-0.172 0.065-0.252 0.024-0.060 0.055-0.119 0.090-0.174 0.399-0.811 0.627-1.72 0.633-2.684 0.021-3.419-2.734-6.206-6.156-6.228-0.013-0.002-0.028-0.002-0.040-0.002-3.404 0.002-6.173 2.745-6.195 6.149-0.022 3.419 2.735 6.207 6.156 6.228 0.013 0 0.027 0.001 0.041 0.001 0.983 0 1.915-0.229 2.741-0.64 0.022-0.012 0.044-0.023 0.067-0.033 0.119-0.055 0.25-0.088 0.388-0.093 0.016-0.002 0.031-0.002 0.045-0.002 0.25 0 0.478 0.088 0.657 0.234 0.057 0.046 0.108 0.099 0.154 0.156 0.576 0.582 1.776 1.825 3.299 3.557 0.012 0.013 0.024 0.027 0.037 0.039 0.535 0.561 1.464 0.504 2.015-0.054 0.552-0.56 0.546-1.524 0.019-2.020zM9.437 9.466c-0.502 0.498-1.099 0.868-1.749 1.090-0.476 0.164-0.984 0.249-1.502 0.249h-0.031c-2.544-0.015-4.602-2.097-4.586-4.639 0.016-2.525 2.087-4.581 4.615-4.581h0.031c1.232 0.008 2.388 0.495 3.254 1.372s1.339 2.037 1.331 3.268c-0.004 0.546-0.1 1.075-0.285 1.572-0.228 0.621-0.593 1.19-1.077 1.67z"></path>
</svg>
