<!-- Generated by IcoMoon.io -->
<svg version="1.1" xmlns="http://www.w3.org/2000/svg" width="16" height="16" viewBox="0 0 16 16">
<title>speech</title>
<path fill="#95e1d3" d="M8.447 13.228c-0.573 0-1.134-0.165-1.676-0.243-2.191 2.771-5.647 2.225-5.647 2.225 2.441-1.155 2.391-3.069 1.957-3.324-1.916-1.126-3.068-2.84-3.068-4.761 0-3.39 3.727-6.139 8.434-6.139 4.708 0 7.577 2.749 7.577 6.139 0 3.392-2.869 6.103-7.577 6.103zM4.273 5.745c-0.828 0-1.5 0.671-1.5 1.5s0.672 1.5 1.5 1.5c0.829 0 1.5-0.672 1.5-1.5 0-0.829-0.671-1.5-1.5-1.5zM8.023 5.745c-0.828 0-1.5 0.671-1.5 1.5s0.672 1.5 1.5 1.5c0.829 0 1.5-0.672 1.5-1.5 0-0.829-0.671-1.5-1.5-1.5zM11.773 5.745c-0.828 0-1.5 0.671-1.5 1.5s0.672 1.5 1.5 1.5c0.829 0 1.5-0.672 1.5-1.5 0-0.829-0.671-1.5-1.5-1.5z"></path>
</svg>
