<!-- Generated by IcoMoon.io -->
<svg version="1.1" xmlns="http://www.w3.org/2000/svg" width="16" height="16" viewBox="0 0 16 16">
<title>tumblr</title>
<path fill="#95e1d3" d="M13.009 15.145c-0.68 0.321-1.297 0.548-1.849 0.678s-1.148 0.195-1.789 0.195c-0.729 0-1.158-0.092-1.718-0.276-0.559-0.185-1.036-0.45-1.431-0.79-0.396-0.343-0.669-0.708-0.823-1.092-0.152-0.386-0.228-0.944-0.228-1.677v-5.614h-2.164v-2.267c0.626-0.204 1.351-0.497 1.796-0.879 0.448-0.382 0.805-0.839 1.075-1.375 0.27-0.534 0.457-1.213 0.558-2.040h2.265v3.704h3.682v2.857h-3.682v4.105c0 0.929-0.012 1.464 0.086 1.727 0.097 0.262 0.341 0.534 0.607 0.691 0.353 0.212 0.755 0.319 1.209 0.319 0.806 0 1.608-0.264 2.406-0.791v2.525z"></path>
</svg>
