<!-- Generated by IcoMoon.io -->
<svg version="1.1" xmlns="http://www.w3.org/2000/svg" width="23" height="16" viewBox="0 0 23 16">
<title>users</title>
<path fill="#fff" d="M22.69 15.292c0 0.001 0 0.001 0 0.001 0 0.39-0.317 0.704-0.707 0.704h-5.264c0.395-0.087 0.69-0.436 0.69-0.856 0-0.001-0.001-0.001-0.001-0.001h0.001c0 0 0-3.199-2.344-4.362-1.003-0.497-1.069-0.402-1.567-0.52l0.014-1.385c0 0-0.548-0.418-0.718-1.726-0.342 0.099-0.455-0.401-0.476-0.719-0.018-0.306-0.198-1.266 0.22-1.18-0.086-0.641-0.147-1.218-0.117-1.525 0.105-1.074 1.143-2.197 2.742-2.277 1.881 0.081 2.626 1.203 2.731 2.277 0.031 0.307-0.036 0.885-0.122 1.524 0.418-0.085 0.236 0.872 0.216 1.18-0.018 0.318-0.134 0.816-0.475 0.717-0.171 1.309-0.719 1.723-0.719 1.723l0.013 1.383c0 0 0.347 0.197 1.808 0.8 1.462 0.604 1.003 0.152 2.193 0.742 1.881 0.933 1.881 3.499 1.881 3.499v0zM12.089 10.56c1.606 0.664 1.102 0.167 2.411 0.817 2.068 1.025 2.068 3.846 2.068 3.846h-0.001c0 0 0 0.001 0 0.002 0 0.428-0.347 0.773-0.776 0.773h-15.015c-0.429 0-0.776-0.346-0.776-0.773 0-0.001 0-0.002 0-0.002h-0.001c0 0 0-2.821 2.068-3.847 1.309-0.648 0.805-0.121 2.411-0.785 1.606-0.663 1.987-0.895 1.987-0.895l0.015-1.528c0 0-0.602-0.459-0.788-1.896-0.376 0.109-0.501-0.441-0.523-0.79-0.021-0.337-0.218-1.392 0.241-1.296-0.094-0.704-0.161-1.339-0.128-1.675 0.115-1.182 1.256-2.415 3.014-2.505 2.067 0.089 2.887 1.323 3.001 2.503 0.033 0.337-0.040 0.972-0.134 1.675 0.459-0.094 0.26 0.959 0.237 1.296-0.020 0.35-0.147 0.897-0.523 0.788-0.187 1.439-0.789 1.893-0.789 1.893l0.014 1.521c0 0 0.381 0.216 1.987 0.879z"></path>
</svg>
