<!-- Generated by IcoMoon.io -->
<svg version="1.1" xmlns="http://www.w3.org/2000/svg" width="35" height="32" viewBox="0 0 35 32">
<title>brush</title>
<path fill="#fff" d="M33.965 5.308c-4.287 3.74-8.682 8.33-10.202 9.945h0.001c-0.487 0.515-0.784 1.143-0.895 1.798-0.004 0.031-0.010 0.061-0.013 0.093-0.141 0.884-0.687 1.641-1.398 2.359l-1.457 1.468c-0.001 0.001-0.001 0.003-0.004 0.004l-0.092 0.095c-0.291 0.247-0.726 0.233-1.001-0.045-0.057-0.058-0.105-0.124-0.138-0.195-0.017-0.045-0.033-0.090-0.051-0.135-0.381-0.98-0.963-1.9-1.745-2.691-0.803-0.809-1.732-1.405-2.727-1.791-0.009-0.004-0.016-0.007-0.023-0.010-0.086-0.036-0.166-0.089-0.237-0.16-0.269-0.273-0.288-0.705-0.048-0.998 0.001-0.001 0.003-0.004 0.006-0.006l0.090-0.093 1.452-1.46c0.707-0.716 1.462-1.268 2.34-1.415 0.004 0 0.007 0 0.012-0.001 0.028-0.003 0.055-0.007 0.081-0.012 0.003-0.001 0.006-0.001 0.010-0.001 0.646-0.113 1.267-0.412 1.775-0.899 1.546-1.487 5.952-5.792 9.872-10.266 1.053-1.203 3.18-1.226 4.393-0.003 1.213 1.22 1.297 3.29 0 4.42zM16.858 25.011c-0.013 0.044-0.031 0.087-0.047 0.132-0.74 2.019-2.145 3.497-3.802 4.586-0.775 0.508-1.607 0.925-2.46 1.255-2.365 0.913-4.886 1.168-6.746 0.941-2.867-0.351-4.028-2.314-3.772-2.775 0.384-0.692 2.095-0.749 4.016-3.657 0.423-0.64 0.812-1.455 1.18-2.585 0.963-2.966 3.322-4.497 5.273-4.963 0.026-0.007 0.051-0.013 0.074-0.019 1.748-0.404 3.658 0.081 5.020 1.457 1.507 1.521 1.929 3.724 1.264 5.626z"></path>
</svg>
