<!-- Generated by IcoMoon.io -->
<svg version="1.1" xmlns="http://www.w3.org/2000/svg" width="45" height="32" viewBox="0 0 45 32">
<title>keyboard</title>
<path fill="#fff" d="M41.958 31.982h-39.152c-1.562 0-2.826-1.307-2.826-2.92v-26.122c0-1.613 1.264-2.922 2.826-2.922h39.152c1.56 0 2.826 1.309 2.826 2.922v26.122c0 1.613-1.266 2.92-2.826 2.92zM40.931 26.741c0-0.024 0-0.046 0-0.069v-20.97c0-0.024 0-0.048 0-0.069 0-0.024 0-0.046 0-0.069-0.034-0.702-0.598-1.259-1.285-1.259h-34.531c-0.685 0-1.246 0.557-1.282 1.259-0.002 0.022-0.002 0.045-0.002 0.069 0 0.021 0 0.045 0.002 0.069v20.97c-0.002 0.022-0.002 0.045-0.002 0.069 0 0.021 0 0.045 0.002 0.067 0.034 0.667 0.546 1.205 1.187 1.256 0.032 0.002 0.064 0.003 0.094 0.003 0.035 0 0.069-0.002 0.102-0.003h34.331c0.034 0.002 0.067 0.003 0.098 0.003 0.035 0 0.067-0.002 0.099-0.003 0.642-0.051 1.152-0.589 1.186-1.256 0-0.022 0-0.046 0-0.067zM36.949 25.014h-1.901c-0.872 0-1.579-0.73-1.579-1.63v-1.491c0-0.901 0.707-1.632 1.579-1.632h1.901c0.869 0 1.578 0.731 1.578 1.632v1.491c0 0.901-0.709 1.63-1.578 1.63zM36.949 18.378h-1.901c-0.872 0-1.579-0.73-1.579-1.629v-4.344c0-0.366-0.286-0.662-0.643-0.662h-4.586c-0.87 0-1.578-0.73-1.578-1.632v-1.491c0-0.899 0.707-1.63 1.578-1.63h8.709c0.869 0 1.578 0.731 1.578 1.63v8.13c0 0.899-0.709 1.629-1.578 1.629zM23.331 18.378h-1.899c-0.872 0-1.578-0.73-1.578-1.629v-1.494c0-0.899 0.706-1.629 1.578-1.629h1.899c0.87 0 1.581 0.73 1.581 1.629v1.494c0 0.899-0.71 1.629-1.581 1.629zM23.331 11.742h-1.899c-0.872 0-1.578-0.73-1.578-1.632v-1.491c0-0.899 0.706-1.63 1.578-1.63h1.899c0.87 0 1.581 0.731 1.581 1.63v1.491c0 0.902-0.71 1.632-1.581 1.632zM16.523 18.378h-8.707c-0.87 0-1.579-0.73-1.579-1.629v-1.494c0-0.899 0.709-1.629 1.579-1.629h8.707c0.872 0 1.579 0.73 1.579 1.629v1.494c0 0.899-0.707 1.629-1.579 1.629zM16.523 11.742h-1.898c-0.872 0-1.579-0.73-1.579-1.632v-1.491c0-0.899 0.707-1.63 1.579-1.63h1.898c0.872 0 1.579 0.731 1.579 1.63v1.491c0 0.902-0.707 1.632-1.579 1.632zM9.718 11.742h-1.902c-0.87 0-1.579-0.73-1.579-1.632v-1.491c0-0.899 0.709-1.63 1.579-1.63h1.902c0.87 0 1.574 0.731 1.574 1.63v1.491c0 0.902-0.704 1.632-1.574 1.632zM7.816 20.261h1.902c0.87 0 1.574 0.731 1.574 1.632v1.491c0 0.901-0.704 1.63-1.574 1.63h-1.902c-0.87 0-1.579-0.73-1.579-1.63v-1.491c0-0.901 0.709-1.632 1.579-1.632zM30.141 18.378h-1.901c-0.87 0-1.578-0.73-1.578-1.629v-1.494c0-0.899 0.707-1.629 1.578-1.629h1.901c0.87 0 1.578 0.73 1.578 1.629v1.494c0 0.899-0.707 1.629-1.578 1.629zM14.626 20.261h15.515c0.87 0 1.578 0.731 1.578 1.632v1.491c0 0.901-0.707 1.63-1.578 1.63h-15.515c-0.872 0-1.579-0.73-1.579-1.63v-1.491c0-0.901 0.707-1.632 1.579-1.632z"></path>
</svg>
