<svg xmlns="http://www.w3.org/2000/svg" xmlns:xlink="http://www.w3.org/1999/xlink" preserveAspectRatio="xMidYMid" width="23.875" height="23" viewBox="0 0 23.875 23">
  <defs>
    <style>
      .cls-1 {
        fill: #c7cdd9;
        fill-rule: evenodd;
      }
    </style>
  </defs>
  <path d="M23.478,12.602 C23.339,12.717 23.324,12.648 23.134,12.648 C22.920,12.648 22.705,12.481 22.592,12.365 L11.908,1.048 L1.637,12.018 C1.365,12.295 0.803,12.870 0.550,12.574 C0.260,12.319 -0.177,12.047 0.096,11.770 L11.447,0.216 C11.586,0.076 11.750,-0.003 11.940,-0.003 C12.104,-0.003 12.268,0.074 12.407,0.216 L16.883,4.795 L16.883,1.817 C16.883,1.420 17.049,1.223 17.416,1.223 C17.807,1.223 17.916,1.398 17.916,1.796 L17.916,5.993 L23.784,11.847 C24.055,12.126 23.730,12.344 23.478,12.602 ZM4.488,12.707 C4.880,12.707 4.882,12.951 4.882,13.324 L4.882,21.979 L8.876,21.979 L8.876,17.628 C8.876,17.257 9.192,16.934 9.584,16.934 L14.239,16.934 C14.606,16.934 14.909,17.257 14.909,17.628 L14.909,21.979 L18.892,21.979 L18.892,13.407 C18.892,13.007 19.082,12.700 19.473,12.700 C19.839,12.700 19.905,13.007 19.905,13.407 L19.905,22.318 C19.905,22.690 19.602,23.000 19.236,23.000 L14.605,23.000 C14.213,23.000 13.910,22.690 13.910,22.318 L13.910,18.121 L9.918,18.121 L9.918,22.318 C9.918,22.690 9.614,23.000 9.248,23.000 L4.553,23.000 C4.187,23.000 3.884,22.690 3.884,22.318 L3.884,13.324 C3.884,12.951 4.122,12.707 4.488,12.707 Z" class="cls-1"/>
</svg>
