<svg xmlns="http://www.w3.org/2000/svg" xmlns:xlink="http://www.w3.org/1999/xlink" preserveAspectRatio="xMidYMid" width="24" height="24" viewBox="0 0 24 24">
  <defs>
    <style>
      .cls-1 {
        fill: #fff;
        fill-rule: evenodd;
      }
    </style>
  </defs>
  <path d="M23.924,20.677 C23.780,20.922 23.570,21.052 23.282,21.052 L0.738,21.052 C0.450,21.052 0.239,20.923 0.096,20.677 C0.029,20.561 0.005,20.300 0.005,20.183 C0.005,20.041 0.060,19.914 0.149,19.782 C1.081,18.414 1.779,16.949 2.257,15.413 C2.735,13.873 3.620,11.908 4.000,9.000 C4.222,7.306 4.469,5.614 5.241,4.696 C5.634,4.231 6.078,3.815 6.577,3.455 C7.583,2.730 8.397,2.395 9.339,2.124 C9.470,1.516 9.784,1.012 10.282,0.612 C10.779,0.211 11.355,0.004 11.997,0.004 C12.652,0.004 13.225,0.214 13.725,0.612 C14.233,1.015 14.550,1.516 14.681,2.124 C15.623,2.395 16.432,2.736 17.430,3.455 C17.938,3.821 18.379,4.237 18.765,4.696 C19.544,5.620 20.246,7.049 20.467,8.743 C20.848,11.651 21.273,13.877 21.751,15.413 C22.229,16.953 22.934,18.575 23.871,19.940 C23.955,20.062 24.002,20.185 24.002,20.328 C24.002,20.444 23.976,20.560 23.924,20.677 ZM20.166,15.090 C19.747,13.526 19.366,11.471 19.014,8.924 C18.816,7.489 18.250,6.291 17.574,5.511 C17.242,5.127 16.851,4.792 16.409,4.490 C15.528,3.887 14.744,3.609 13.843,3.391 C13.513,3.311 13.280,3.029 13.280,2.706 L13.280,2.680 C13.280,1.995 12.717,1.439 11.997,1.439 C11.303,1.439 10.714,1.994 10.714,2.680 L10.714,2.706 C10.714,3.029 10.503,3.319 10.177,3.391 C9.272,3.591 8.500,3.899 7.598,4.490 C6.327,5.322 5.309,6.712 4.993,8.924 C4.628,11.469 4.253,13.537 3.841,15.103 C3.429,16.666 2.785,18.668 2.000,20.000 L22.000,20.000 C21.214,18.655 20.585,16.654 20.166,15.090 ZM13.509,23.375 C13.098,23.794 12.605,24.006 12.007,24.006 C11.423,24.006 10.922,23.800 10.491,23.375 C10.074,22.963 9.865,22.468 9.865,21.892 L14.134,21.892 C14.134,22.468 13.918,22.956 13.509,23.375 Z" class="cls-1"/>
</svg>
