<svg xmlns="http://www.w3.org/2000/svg" xmlns:xlink="http://www.w3.org/1999/xlink" preserveAspectRatio="xMidYMid" width="19" height="24" viewBox="0 0 19 24">
  <defs>
    <style>
      .cls-1 {
        fill: #c7cdd9;
        fill-rule: evenodd;
      }
    </style>
  </defs>
  <path d="M17.500,24.000 L1.500,24.000 C0.673,24.000 0.000,23.327 0.000,22.500 L0.000,1.500 C0.000,0.673 0.673,0.000 1.500,0.000 L17.500,0.000 C18.327,0.000 19.000,0.673 19.000,1.500 L19.000,22.500 C19.000,23.327 18.327,24.000 17.500,24.000 ZM18.000,1.500 C18.000,1.224 17.776,1.000 17.500,1.000 L1.500,1.000 C1.224,1.000 1.000,1.224 1.000,1.500 L1.000,22.500 C1.000,22.775 1.224,23.000 1.500,23.000 L17.500,23.000 C17.776,23.000 18.000,22.775 18.000,22.500 L18.000,1.500 ZM3.000,19.000 L16.000,19.000 L16.000,21.000 L3.000,21.000 L3.000,19.000 ZM3.000,15.000 L16.000,15.000 L16.000,17.000 L3.000,17.000 L3.000,15.000 ZM3.000,11.000 L16.000,11.000 L16.000,13.000 L3.000,13.000 L3.000,11.000 ZM3.000,7.000 L16.000,7.000 L16.000,9.000 L3.000,9.000 L3.000,7.000 ZM7.000,3.000 L16.000,3.000 L16.000,5.000 L7.000,5.000 L7.000,3.000 Z" class="cls-1"/>
</svg>
