<svg xmlns="http://www.w3.org/2000/svg" xmlns:xlink="http://www.w3.org/1999/xlink" preserveAspectRatio="xMidYMid" width="8" height="14" viewBox="0 0 8 14">
  <defs>
    <style>
      .cls-1 {
        fill: #fff;
        fill-rule: evenodd;
      }
    </style>
  </defs>
  <path d="M7.998,7.001 C8.012,7.263 7.928,7.528 7.728,7.728 C7.636,7.820 7.529,7.888 7.416,7.935 L1.623,13.728 C1.250,14.101 0.645,14.101 0.272,13.728 C-0.101,13.355 -0.101,12.750 0.272,12.377 L5.649,7.000 L0.272,1.622 C-0.101,1.249 -0.101,0.645 0.272,0.272 C0.645,-0.102 1.249,-0.102 1.622,0.272 L7.413,6.062 C7.528,6.109 7.635,6.178 7.728,6.272 C7.929,6.472 8.013,6.739 7.998,7.001 Z" class="cls-1"/>
</svg>
