<!-- Generated by IcoMoon.io -->
<svg version="1.1" xmlns="http://www.w3.org/2000/svg" width="32" height="32" viewBox="0 0 32 32">
<title>logo</title>
<path fill="#fff" d="M16.018 0.018c-8.837 0-16 7.157-16 15.982 0 8.83 7.163 15.982 16 15.982s16-7.152 16-15.982c0-8.825-7.163-15.982-16-15.982zM26.171 7.383c1.801 2.11 2.944 4.791 3.141 7.733-2.88-0.153-6.331-0.151-9.104 0.11-0.347-0.885-0.709-1.751-1.095-2.581 3.198-1.381 5.657-3.195 7.058-5.262zM16.018 2.686c3.234 0 6.199 1.15 8.507 3.063-1.449 1.833-3.719 3.424-6.555 4.626-1.55-2.859-3.33-5.323-5.232-7.269 1.051-0.267 2.146-0.421 3.28-0.421zM9.986 4.135c1.927 1.911 3.735 4.354 5.317 7.205-3.013 0.917-6.462 1.445-10.139 1.445-0.697 0-1.381-0.027-2.059-0.066 0.955-3.751 3.502-6.864 6.882-8.583zM2.709 15.365c0.759 0.034 1.525 0.048 2.302 0.039 4.199-0.053 8.112-0.704 11.467-1.781 0.313 0.658 0.615 1.333 0.901 2.025-0.457 0.107-0.864 0.224-1.191 0.359-4.594 1.925-8.208 5.029-10.169 8.784-2.069-2.347-3.333-5.417-3.333-8.791 0-0.213 0.014-0.423 0.023-0.635zM16.018 29.319c-3.081 0-5.911-1.051-8.171-2.807 1.774-3.511 4.942-6.416 8.935-8.224 0.379-0.171 0.878-0.313 1.449-0.439 0.473 1.319 0.905 2.683 1.273 4.094 0.581 2.21 0.983 4.384 1.234 6.503-1.467 0.558-3.056 0.873-4.72 0.873zM23.225 27.198c-0.251-2.139-0.658-4.336-1.243-6.567-0.283-1.081-0.61-2.13-0.955-3.157 2.615-0.215 5.751-0.181 8.24 0-0.453 4.082-2.75 7.602-6.041 9.723z"></path>
</svg>
