<!-- Generated by IcoMoon.io -->
<svg version="1.1" xmlns="http://www.w3.org/2000/svg" width="41" height="32" viewBox="0 0 41 32">
<title>tw</title>
<path fill="#fff" d="M40.727 3.776c-1.498 0.64-3.11 1.076-4.8 1.271 1.725-1.001 3.052-2.583 3.674-4.471-1.615 0.925-3.404 1.6-5.306 1.961-1.524-1.571-3.697-2.551-6.1-2.551-4.614 0-8.355 3.619-8.355 8.081 0 0.631 0.073 1.251 0.218 1.841-6.947-0.337-13.103-3.555-17.225-8.445-0.719 1.196-1.129 2.583-1.129 4.064 0 2.804 1.475 5.277 3.715 6.726-1.37-0.041-2.656-0.404-3.782-1.009-0.003 0.032-0.003 0.067-0.003 0.102 0 3.913 2.88 7.18 6.703 7.921-0.701 0.186-1.44 0.285-2.202 0.285-0.538 0-1.062-0.049-1.571-0.145 1.062 3.212 4.148 5.548 7.805 5.612-2.86 2.167-6.461 3.459-10.377 3.459-0.675 0-1.341-0.038-1.993-0.111 3.697 2.292 8.090 3.631 12.809 3.631 15.369 0 23.773-12.314 23.773-22.993 0-0.352-0.009-0.698-0.023-1.047 1.632-1.137 3.049-2.56 4.169-4.18z"></path>
</svg>
