<svg xmlns="http://www.w3.org/2000/svg" xmlns:xlink="http://www.w3.org/1999/xlink" preserveAspectRatio="xMidYMid" width="20" height="20" viewBox="0 0 20 20">
  <defs>
    <style>
      .cls-1 {
        fill: #b4bbc2;
        fill-rule: evenodd;
      }
    </style>
  </defs>
  <path d="M10.000,20.000 C4.477,20.000 -0.000,15.523 -0.000,10.000 C-0.000,4.477 4.477,-0.000 10.000,-0.000 C15.523,-0.000 20.000,4.477 20.000,10.000 C20.000,15.523 15.523,20.000 10.000,20.000 ZM13.728,6.272 C13.355,5.898 12.751,5.898 12.377,6.272 L10.000,8.649 L7.622,6.272 C7.249,5.898 6.645,5.898 6.272,6.272 C5.899,6.645 5.899,7.249 6.272,7.622 L8.649,10.000 L6.272,12.377 C5.899,12.750 5.899,13.354 6.272,13.728 C6.645,14.101 7.250,14.101 7.623,13.728 L10.000,11.351 L12.377,13.728 C12.750,14.101 13.355,14.101 13.728,13.728 C14.101,13.354 14.101,12.750 13.728,12.377 L11.351,10.000 L13.728,7.622 C14.101,7.249 14.101,6.645 13.728,6.272 Z" class="cls-1"/>
</svg>
