<svg xmlns="http://www.w3.org/2000/svg" xmlns:xlink="http://www.w3.org/1999/xlink" preserveAspectRatio="xMidYMid" width="18" height="18" viewBox="0 0 18 18">
  <defs>
    <style>
      .cls-1 {
        fill: #383737;
        fill-rule: evenodd;
      }
    </style>
  </defs>
  <path d="M17.558,15.217 C17.545,15.204 17.532,15.193 17.520,15.182 C15.560,13.479 14.203,12.241 13.525,11.613 C13.441,11.553 13.366,11.483 13.299,11.404 C13.132,11.202 13.033,10.944 13.033,10.661 C13.033,10.611 13.036,10.562 13.042,10.513 C13.055,10.414 13.079,10.319 13.115,10.229 C13.142,10.161 13.177,10.095 13.216,10.033 C13.665,9.121 13.921,8.098 13.928,7.014 C13.952,3.168 10.852,0.032 7.002,0.008 C6.987,0.006 6.971,0.006 6.957,0.006 C3.128,0.008 0.012,3.094 -0.012,6.924 C-0.037,10.770 3.065,13.907 6.913,13.930 C6.928,13.930 6.943,13.931 6.959,13.931 C8.065,13.931 9.113,13.673 10.043,13.211 C10.068,13.197 10.092,13.185 10.118,13.174 C10.252,13.112 10.399,13.075 10.554,13.069 C10.572,13.067 10.589,13.067 10.605,13.067 C10.886,13.067 11.143,13.166 11.344,13.330 C11.408,13.382 11.466,13.441 11.517,13.505 C12.165,14.160 13.515,15.558 15.228,17.507 C15.241,17.522 15.255,17.537 15.270,17.551 C15.872,18.182 16.917,18.118 17.537,17.490 C18.158,16.860 18.151,15.776 17.558,15.217 ZM10.617,10.649 C10.052,11.209 9.381,11.625 8.649,11.875 C8.113,12.060 7.542,12.155 6.959,12.155 L6.924,12.155 C4.062,12.138 1.747,9.796 1.765,6.936 C1.783,4.095 4.113,1.782 6.957,1.782 L6.992,1.782 C8.378,1.791 9.678,2.339 10.653,3.325 C11.627,4.311 12.159,5.617 12.150,7.002 C12.146,7.616 12.037,8.211 11.829,8.770 C11.572,9.469 11.162,10.109 10.617,10.649 Z" class="cls-1"/>
</svg>
