<svg xmlns="http://www.w3.org/2000/svg" xmlns:xlink="http://www.w3.org/1999/xlink" preserveAspectRatio="xMidYMid" width="9.969" height="6" viewBox="0 0 9.969 6">
  <defs>
    <style>
      .cls-1 {
        fill: #fff;
        fill-rule: evenodd;
      }
    </style>
  </defs>
  <path d="M9.697,1.604 L5.930,5.418 C5.884,5.528 5.820,5.632 5.731,5.722 C5.536,5.920 5.276,6.006 5.020,5.994 C4.753,6.014 4.480,5.933 4.276,5.731 C4.176,5.631 4.108,5.514 4.061,5.390 L0.269,1.626 C-0.100,1.252 -0.100,0.646 0.269,0.273 C0.638,-0.101 1.236,-0.101 1.605,0.273 L5.009,3.652 L8.350,0.269 C8.722,-0.100 9.325,-0.100 9.697,0.269 C10.068,0.637 10.068,1.235 9.697,1.604 Z" class="cls-1"/>
</svg>
