<!-- Generated by IcoMoon.io -->
<svg version="1.1" xmlns="http://www.w3.org/2000/svg" width="32" height="32" viewBox="0 0 32 32">
<title>search</title>
<path d="M31.214 27.052c-0.023-0.023-0.046-0.043-0.068-0.062-3.484-3.028-5.897-5.228-7.102-6.345-0.149-0.107-0.283-0.231-0.402-0.372-0.297-0.359-0.473-0.818-0.473-1.321 0-0.089 0.005-0.176 0.016-0.263 0.023-0.176 0.066-0.345 0.13-0.505 0.048-0.121 0.11-0.238 0.18-0.348 0.798-1.621 1.253-3.44 1.266-5.367 0.043-6.837-5.468-12.412-12.313-12.455-0.027-0.004-0.055-0.004-0.080-0.004-6.807 0.004-12.347 5.49-12.389 12.299-0.044 6.837 5.47 12.414 12.311 12.455 0.027 0 0.053 0.002 0.082 0.002 1.966 0 3.829-0.459 5.483-1.28 0.044-0.025 0.087-0.046 0.133-0.066 0.238-0.11 0.5-0.176 0.775-0.187 0.032-0.004 0.062-0.004 0.091-0.004 0.5 0 0.956 0.176 1.314 0.468 0.114 0.092 0.217 0.197 0.308 0.311 1.152 1.164 3.552 3.65 6.597 7.115 0.023 0.027 0.048 0.053 0.075 0.078 1.070 1.122 2.928 1.008 4.030-0.108 1.104-1.12 1.092-3.047 0.037-4.041zM18.875 18.932c-1.004 0.996-2.197 1.735-3.499 2.18-0.953 0.329-1.968 0.498-3.004 0.498h-0.062c-5.088-0.030-9.204-4.194-9.172-9.278 0.032-5.051 4.174-9.163 9.23-9.163h0.062c2.464 0.016 4.775 0.99 6.508 2.743 1.732 1.753 2.677 4.075 2.661 6.537-0.007 1.092-0.201 2.149-0.571 3.143-0.457 1.243-1.186 2.38-2.155 3.34z"></path>
</svg>
