<!-- Generated by IcoMoon.io -->
<svg version="1.1" xmlns="http://www.w3.org/2000/svg" width="32" height="32" viewBox="0 0 32 32">
<title>Delete</title>
<path fill="#b4bbc2" d="M16 32c-8.837 0-16-7.163-16-16s7.163-16 16-16c8.837 0 16 7.163 16 16s-7.163 16-16 16zM21.965 10.035c-0.597-0.598-1.563-0.598-2.162 0l-3.803 3.803-3.805-3.803c-0.597-0.598-1.563-0.598-2.16 0-0.597 0.597-0.597 1.563 0 2.16l3.803 3.805-3.803 3.803c-0.597 0.597-0.597 1.563 0 2.162 0.597 0.597 1.565 0.597 2.162 0l3.803-3.803 3.803 3.803c0.597 0.597 1.565 0.597 2.162 0 0.597-0.598 0.597-1.565 0-2.162l-3.803-3.803 3.803-3.805c0.597-0.597 0.597-1.563 0-2.16z"></path>
</svg>
