<!-- Generated by IcoMoon.io -->
<svg version="1.1" xmlns="http://www.w3.org/2000/svg" width="32" height="32" viewBox="0 0 32 32">
<title>pencil</title>
<path fill="#fff" d="M31.3 6.26c-0.072 0.095-0.147 0.187-0.226 0.276l-0.155 0.163c-0.001 0-0.004 0.001-0.004 0.003l-18.682 19.735c-0.001 0 0 0-0.003 0.001l-0.1 0.104c0 0 0 0 0 0.003-0.371 0.332-0.945 0.323-1.302-0.035l-5.279-5.275c-0.371-0.371-0.37-0.968 0-1.338 0.011-0.012 0.021-0.023 0.036-0.033l14.223-13.445c0 0 0 0 0-0.003 0.020-0.015 0.043-0.035 0.061-0.056 0.009-0.009 0.020-0.020 0.029-0.028 0.136-0.152 0.206-0.342 0.21-0.53 0.005-0.216-0.075-0.433-0.239-0.598-0.208-0.207-0.501-0.279-0.768-0.218-0.113 0.028-0.224 0.077-0.318 0.155-0.025 0.020-0.049 0.041-0.071 0.064-0.013 0.012-0.025 0.025-0.036 0.037l-7.834 7.484c-0.001 0.003-0.003 0.004-0.003 0.004l-0.040 0.039c-0.32 0.282-0.81 0.268-1.116-0.037-0.307-0.307-0.32-0.79-0.041-1.112l0.117-0.113 9.711-9.26c0.714-0.634 1.758-0.698 2.541-0.195 0.008 0.003 0.016 0.009 0.024 0.015s0.017 0.011 0.025 0.016c0.782 0.503 1.825 0.438 2.539-0.196 0.032-0.028 0.064-0.057 0.096-0.089 0.001-0.003 0.003-0.003 0.005-0.005l0.666-0.63c0.001-0.001 0.003-0.003 0.003-0.003l0.164-0.158c0.089-0.077 0.182-0.154 0.278-0.226 1.535-1.136 3.713-1.009 5.104 0.383 1.391 1.391 1.519 3.567 0.382 5.1zM9.608 27.562c0.278 0.276 0.278 0.726 0 1.004-0.052 0.052-0.109 0.093-0.172 0.125l0.001 0.003c-1.243 0.597-2.761 1.264-3.925 1.724-0.973 0.384-1.888 0.717-2.694 0.999l-0.001-0.003c-0.123 0.051-0.27 0.024-0.371-0.075-0.159-0.158-0.417-0.162-0.577-0.001l-0.455 0.457c-0.083 0.080-0.175 0.142-0.278 0.182-0.037 0.011-0.071 0.021-0.103 0.032-0.003 0.001-0.003 0.001-0.003 0.001-0.268 0.065-0.561-0.008-0.772-0.215 0 0 0 0 0-0.001 0 0-0.001 0-0.001 0-0.207-0.21-0.279-0.502-0.214-0.769 0 0 0-0.001 0.001-0.003 0.009-0.033 0.021-0.067 0.032-0.104 0.040-0.103 0.1-0.195 0.182-0.278l0.455-0.454c0.16-0.16 0.159-0.419-0.001-0.578-0.099-0.1-0.125-0.247-0.075-0.37l-0.001-0.001c0.282-0.806 0.614-1.719 0.999-2.691 0.461-1.164 1.127-2.681 1.725-3.922l0.003 0.001c0.032-0.063 0.075-0.12 0.127-0.172 0.278-0.278 0.726-0.278 1.004-0.001l5.114 5.112z"></path>
</svg>
