<svg xmlns="http://www.w3.org/2000/svg" xmlns:xlink="http://www.w3.org/1999/xlink" preserveAspectRatio="xMidYMid" width="8" height="14" viewBox="0 0 8 14">
  <defs>
    <style>
      .cls-1 {
        fill: #fff;
        fill-rule: evenodd;
      }
    </style>
  </defs>
  <path d="M7.998,7.001 C8.012,7.262 7.928,7.528 7.728,7.727 C7.636,7.819 7.530,7.888 7.417,7.934 L1.623,13.727 C1.250,14.101 0.645,14.101 0.272,13.727 C-0.101,13.354 -0.101,12.750 0.272,12.377 L5.649,7.000 L0.272,1.622 C-0.102,1.249 -0.102,0.644 0.272,0.271 C0.645,-0.102 1.249,-0.102 1.622,0.271 L7.412,6.061 C7.527,6.108 7.635,6.178 7.728,6.271 C7.929,6.472 8.013,6.738 7.998,7.001 Z" class="cls-1"/>
</svg>
