<svg xmlns="http://www.w3.org/2000/svg" xmlns:xlink="http://www.w3.org/1999/xlink" preserveAspectRatio="xMidYMid" width="14" height="11" viewBox="0 0 14 11">
  <defs>
    <style>
      .cls-1 {
        fill: #fff;
        fill-rule: evenodd;
      }
    </style>
  </defs>
  <path d="M14.000,1.297 C13.485,1.518 12.931,1.668 12.350,1.735 C12.943,1.391 13.399,0.846 13.613,0.198 C13.058,0.516 12.443,0.747 11.789,0.872 C11.265,0.332 10.519,-0.005 9.692,-0.005 C8.106,-0.005 6.820,1.238 6.820,2.772 C6.820,2.990 6.845,3.202 6.895,3.406 C4.507,3.290 2.391,2.184 0.974,0.503 C0.727,0.914 0.586,1.390 0.586,1.900 C0.586,2.863 1.093,3.714 1.863,4.212 C1.392,4.197 0.950,4.073 0.563,3.865 C0.562,3.876 0.562,3.887 0.562,3.899 C0.562,5.245 1.552,6.368 2.866,6.623 C2.625,6.686 2.371,6.721 2.110,6.721 C1.924,6.721 1.744,6.703 1.569,6.671 C1.934,7.774 2.995,8.578 4.252,8.600 C3.269,9.345 2.031,9.789 0.685,9.789 C0.453,9.789 0.224,9.776 -0.000,9.750 C1.271,10.538 2.781,10.999 4.403,10.999 C9.686,10.999 12.575,6.766 12.575,3.095 C12.575,2.974 12.572,2.854 12.567,2.735 C13.128,2.343 13.615,1.855 14.000,1.297 Z" class="cls-1"/>
</svg>
