<!-- Generated by IcoMoon.io -->
<svg version="1.1" xmlns="http://www.w3.org/2000/svg" width="34" height="32" viewBox="0 0 34 32">
<title>g+</title>
<path fill="#fff" d="M34.286 7.867h-5.275l0.005 4.77-1.586-0.048v-4.722h-5.275v-1.573h5.275v-5.246h1.586l-0.005 5.246h5.275v1.573zM16.75 18.418l0.002 0.002c2.67 1.851 3.534 3.57 3.534 6.441 0 3.579-3.534 7.138-9.936 7.138-5.614 0-10.35-2.24-10.35-5.819 0-3.634 4.32-7.138 9.936-7.138 0.61 0 1.17-0.016 1.751-0.016-0.768-0.731-1.376-1.63-1.376-2.738 0-0.656 0.213-1.289 0.512-1.851-0.304 0.021-0.615 0.027-0.937 0.027-4.61 0-7.701-3.216-7.701-7.2 0-3.899 4.267-7.264 8.8-7.264 2.526 0 9.17 1.049 9.17 1.049l-1.323 0.553h-3.207c2.126 0.802 3.259 3.232 3.259 5.723 0 2.096-1.184 3.895-2.855 5.177-1.632 1.248-1.941 1.771-1.941 2.834 0 0.905 1.746 2.446 2.661 3.081zM15.248 7.52c-0.45-3.353-2.926-6.043-5.529-6.119-2.603-0.078-4.35 2.489-3.902 5.842 0.45 3.353 2.926 6.133 5.531 6.208 2.601 0.078 4.347-2.578 3.899-5.931zM13.518 20.357c-0.766-0.245-1.611-0.386-2.517-0.395-3.879-0.041-7.355 2.318-7.355 5.152 0 2.891 2.802 5.301 6.683 5.301 5.454 0 7.355-2.261 7.355-5.152 0-0.347-0.043-0.688-0.123-1.022-0.425-1.637-1.936-2.448-4.043-3.883z"></path>
</svg>
