<!-- Generated by IcoMoon.io -->
<svg version="1.1" xmlns="http://www.w3.org/2000/svg" width="32" height="32" viewBox="0 0 32 32">
<title>link</title>
<path fill="#fff" d="M25.155 32.016v-11.547c0-2.904-0.992-4.883-3.475-4.883-1.893 0-3.024 1.336-3.517 2.624-0.184 0.461-0.227 1.107-0.227 1.752v12.053h-6.859c0 0 0.091-19.56 0-21.584h6.859v3.064c-0.013 0.019-0.032 0.043-0.045 0.064h0.045v-0.064c0.909-1.472 2.531-3.571 6.181-3.571 4.512 0 7.896 3.083 7.896 9.715v12.376h-6.859zM3.851 7.483h-0.045c-2.301 0-3.787-1.656-3.787-3.728 0-2.117 1.531-3.731 3.877-3.731s3.792 1.613 3.835 3.731c0 2.072-1.488 3.728-3.88 3.728zM7.28 32.016h-6.856v-21.584h6.856v21.584z"></path>
</svg>
