<!-- Generated by IcoMoon.io -->
<svg version="1.1" xmlns="http://www.w3.org/2000/svg" width="46" height="32" viewBox="0 0 46 32">
<title>mail</title>
<path fill="#d9c26c" d="M42.809 32.030h-39.938c-1.598 0-2.894-1.399-2.894-3.125v-22.439c0-0.766 0.576-1.387 1.287-1.387 0.247 0 0.478 0.073 0.672 0.206 0 0 19.099 16.187 19.257 16.304 0.464 0.352 1.035 0.558 1.648 0.558 0.603 0 1.168-0.201 1.634-0.546 0.162-0.121 19.269-16.313 19.269-16.313 0.194-0.135 0.425-0.208 0.672-0.208 0.711 0 1.285 0.622 1.285 1.387v22.439c0 1.726-1.294 3.125-2.891 3.125zM42.67 2.546l-18.462 15.257c-0.379 0.299-0.846 0.478-1.351 0.478-0.503 0-0.969-0.176-1.344-0.469l-18.697-15.458c-0.242-0.254-0.389-0.603-0.389-0.997 0-0.763 0.574-1.387 1.285-1.387h38.29c0.711 0 1.287 0.624 1.287 1.387 0 0.354-0.121 0.677-0.322 0.919l-0.297 0.27z"></path>
</svg>
