<!-- Generated by IcoMoon.io -->
<svg version="1.1" xmlns="http://www.w3.org/2000/svg" width="37" height="32" viewBox="0 0 37 32">
<title>vimeo</title>
<path fill="#fff" d="M37.184 5.936c0.277-1.555 0.272-3.149-0.693-4.357-1.349-1.696-4.216-1.757-6.181-1.459-1.6 0.243-7.005 2.613-8.845 8.285 3.259-0.245 4.968 0.232 4.656 3.797-0.133 1.491-0.891 3.123-1.739 4.691-0.976 1.805-2.811 5.349-5.216 2.795-2.165-2.301-2.003-6.699-2.499-9.629-0.275-1.64-0.568-3.691-1.109-5.379-0.467-1.453-1.539-3.208-2.848-3.587-1.408-0.411-3.147 0.229-4.171 0.827-3.253 1.899-5.733 4.6-8.549 6.829v0.208c0.56 0.531 0.709 1.4 1.531 1.517 1.939 0.283 3.784-1.792 5.075 0.365 0.781 1.323 1.027 2.768 1.528 4.192 0.669 1.893 1.187 3.96 1.736 6.139 0.928 3.693 2.069 9.208 5.283 10.56 1.64 0.688 4.101-0.235 5.352-0.971 3.379-1.984 6.011-4.864 8.264-7.795 5.155-6.931 7.997-14.787 8.427-17.029z"></path>
</svg>
