<svg xmlns="http://www.w3.org/2000/svg" xmlns:xlink="http://www.w3.org/1999/xlink" preserveAspectRatio="xMidYMid" width="20" height="14" viewBox="0 0 20 14">
  <defs>
    <style>
      .cls-1 {
        fill: #c6ccd2;
        fill-rule: evenodd;
      }
    </style>
  </defs>
  <path d="M18.729,14.013 L1.256,14.013 C0.557,14.013 -0.010,13.400 -0.010,12.646 L-0.010,2.828 C-0.010,2.494 0.242,2.221 0.553,2.221 C0.661,2.221 0.762,2.254 0.847,2.311 C0.847,2.311 9.203,9.394 9.272,9.445 C9.475,9.599 9.725,9.689 9.993,9.689 C10.257,9.689 10.503,9.601 10.708,9.450 C10.779,9.397 19.138,2.312 19.138,2.312 C19.223,2.254 19.324,2.221 19.432,2.221 C19.743,2.221 19.994,2.494 19.994,2.828 L19.994,12.646 C19.994,13.400 19.428,14.013 18.729,14.013 ZM18.668,1.114 L10.591,7.789 C10.425,7.920 10.221,7.998 10.000,7.998 C9.780,7.998 9.576,7.921 9.412,7.792 L1.232,1.029 C1.126,0.919 1.062,0.765 1.062,0.594 C1.062,0.259 1.313,-0.013 1.624,-0.013 L18.376,-0.013 C18.687,-0.013 18.939,0.259 18.939,0.594 C18.939,0.748 18.886,0.889 18.798,0.996 L18.668,1.114 Z" class="cls-1"/>
</svg>
