<?xml version="1.0" encoding="UTF-8"?><!DOCTYPE svg PUBLIC "-//W3C//DTD SVG 1.1//EN" "http://www.w3.org/Graphics/SVG/1.1/DTD/svg11.dtd"><svg xmlns="http://www.w3.org/2000/svg"><defs><style>.cls-1{fill:#c6ccd2;fill-rule:evenodd}</style><style>.cls-1{fill:#fff;fill-rule:evenodd}</style><style>.cls-1{fill:#c6ccd2;fill-rule:evenodd}</style><style>.cls-1{fill:#fff;fill-rule:evenodd}</style><style>.cls-1{fill:#fff;fill-rule:evenodd}</style></defs><symbol id="email" viewBox="0 0 20 14" preserveAspectRatio="xMidYMid"><path d="M18.729 14.013H1.256c-.699 0-1.266-.613-1.266-1.367V2.828c0-.334.252-.607.563-.607.108 0 .209.033.294.09 0 0 8.356 7.083 8.425 7.134a1.19 1.19 0 0 0 1.436.005c.071-.053 8.43-7.138 8.43-7.138a.52.52 0 0 1 .294-.091c.311 0 .562.273.562.607v9.818c0 .754-.566 1.367-1.265 1.367zm-.061-12.899l-8.077 6.675a.95.95 0 0 1-.591.209.949.949 0 0 1-.588-.206l-8.18-6.763a.623.623 0 0 1-.17-.435c0-.335.251-.607.562-.607h16.752c.311 0 .563.272.563.607a.632.632 0 0 1-.141.402l-.13.118z" class="cls-1"/></symbol><symbol id="facebook" viewBox="0 0 6 14" preserveAspectRatio="xMidYMid"><path d="M3.99 13.994H1.325V6.997H-.007V4.584h1.332V3.137C1.325 1.17 2.077 0 4.213 0h1.779v2.412H4.881c-.832 0-.888.337-.888.966L3.99 4.584h2.015l-.236 2.413H3.99v6.997z" class="cls-1"/></symbol><symbol id="lock" viewBox="0 0 14 18" preserveAspectRatio="xMidYMid"><path d="M12.741 6.905h-.002a.786.786 0 0 1-.072-.009h-.002c-.312-.051-.548-.292-.548-.581V4.526c0-2.496-2.294-4.519-5.124-4.519-2.832 0-5.126 2.023-5.126 4.519v1.789c0 .289-.235.53-.547.581h-.002a.786.786 0 0 1-.072.009h-.002c-.707.096-1.247.635-1.247 1.284v8.501c0 .718.659 1.3 1.474 1.3h11.043c.814 0 1.474-.582 1.474-1.3V8.189c0-.649-.541-1.188-1.247-1.284zM4.337 4.526c0-1.293 1.189-2.34 2.656-2.34 1.466 0 2.654 1.047 2.654 2.34v1.773c0 .326-.301.59-.671.59H5.008c-.37 0-.671-.264-.671-.59V4.526z" class="cls-1"/></symbol><symbol id="next" viewBox="0 0 8 14" preserveAspectRatio="xMidYMid"><path d="M7.998 7.001a.942.942 0 0 1-.581.933l-5.794 5.793a.954.954 0 1 1-1.351-1.35L5.649 7 .272 1.622A.954.954 0 1 1 1.622.271l5.79 5.79a.943.943 0 0 1 .586.94z" class="cls-1"/></symbol><symbol id="twitter" viewBox="0 0 14 11" preserveAspectRatio="xMidYMid"><path d="M14 1.297a5.89 5.89 0 0 1-1.65.438A2.806 2.806 0 0 0 13.613.198a5.893 5.893 0 0 1-1.824.674 2.914 2.914 0 0 0-2.097-.877c-1.586 0-2.872 1.243-2.872 2.777 0 .218.025.43.075.634A8.25 8.25 0 0 1 .974.503 2.698 2.698 0 0 0 .586 1.9c0 .963.507 1.814 1.277 2.312a2.938 2.938 0 0 1-1.3-.347l-.001.034c0 1.346.99 2.469 2.304 2.724a2.99 2.99 0 0 1-1.297.048C1.934 7.774 2.995 8.578 4.252 8.6A5.887 5.887 0 0 1 .685 9.789c-.232 0-.461-.013-.685-.039a8.334 8.334 0 0 0 4.403 1.249c5.283 0 8.172-4.233 8.172-7.904 0-.121-.003-.241-.008-.36A5.726 5.726 0 0 0 14 1.297z" class="cls-1"/></symbol></svg>