<!-- Generated by IcoMoon.io -->
<svg version="1.1" xmlns="http://www.w3.org/2000/svg" width="32" height="32" viewBox="0 0 32 32">
<title>candidate</title>
<path d="M22.322 14.461c0.707 0 1.283-0.575 1.283-1.283s-0.575-1.283-1.283-1.283c-0.708 0-1.283 0.575-1.283 1.283s0.576 1.283 1.283 1.283zM22.322 12.921c0.142 0 0.257 0.115 0.257 0.257s-0.115 0.257-0.257 0.257-0.257-0.115-0.257-0.257 0.115-0.257 0.257-0.257z"></path>
<path d="M16.934 13.178c0-0.708-0.576-1.283-1.283-1.283s-1.283 0.575-1.283 1.283 0.576 1.283 1.283 1.283 1.283-0.575 1.283-1.283zM15.651 13.434c-0.142 0-0.257-0.115-0.257-0.257s0.115-0.257 0.257-0.257 0.257 0.115 0.257 0.257-0.115 0.257-0.257 0.257z"></path>
<path d="M30.308 26.494c-0.716-2.29-2.709-4.005-5.080-4.369l-2.65-0.407v-0.532c1.727-1.002 3.001-2.699 3.431-4.708 1.247-0.173 2.214-1.236 2.214-2.53v-5.794c0-2.28-1.246-4.334-3.26-5.388l-0.289-0.362c-1.175-1.468-2.927-2.311-4.808-2.311h-0.879c-5.093 0-9.237 4.144-9.237 9.237v4.618c0 1.294 0.967 2.357 2.214 2.53 0.245 1.149 0.773 2.214 1.532 3.114h-11.956c-0.236 0-0.457 0.057-0.656 0.152l-0.047-0.037-0.091 0.113c-0.444 0.27-0.745 0.754-0.745 1.312v9.237c0 0.564 0.309 1.053 0.763 1.322l0.082 0.096 0.037-0.032c0.2 0.095 0.421 0.153 0.657 0.153h30.461l-1.692-5.413zM22.953 24.476l-2.15 1.076 1.044 1.565-2.347 1.341v-3.771c1.534-0.167 2.41-1.047 2.817-1.802l0.637 1.591zM26.149 15.399c0.008-0.142 0.022-0.282 0.022-0.425v-2.471c0.596 0.212 1.026 0.777 1.026 1.445 0 0.676-0.441 1.245-1.048 1.452zM10.776 13.947c0-0.668 0.431-1.233 1.026-1.445v2.471c0 0.143 0.015 0.284 0.024 0.426-0.608-0.206-1.050-0.775-1.050-1.452zM11.802 10.869v0.565c-0.381 0.078-0.727 0.247-1.026 0.474v-2.579c0-4.527 3.683-8.21 8.21-8.21h0.879c1.568 0 3.028 0.702 4.007 1.926l0.428 0.535 0.101 0.051c1.724 0.862 2.795 2.595 2.795 4.522v3.755c-0.3-0.227-0.645-0.397-1.026-0.474v-0.565c0-0.849-0.691-1.539-1.539-1.539h-11.289c-0.849 0-1.539 0.691-1.539 1.539zM15.488 20.618l-6.765 5.497-6.765-5.497h13.529zM1.026 30.288v-9.105l5.489 4.46-5.489 4.645zM16.421 30.288l-1.423-1.204-0.663 0.784 1.198 1.014h-13.619l5.412-4.579 1.397 1.135 1.397-1.135 3.55 3.004 0.663-0.784-3.402-2.879 5.489-4.46v9.105zM16.702 19.82l-0.091-0.113-0.047 0.038c-0.2-0.095-0.421-0.153-0.656-0.153h-0.984c-1.33-1.171-2.095-2.841-2.095-4.618v-4.105c0-0.283 0.23-0.513 0.513-0.513h11.289c0.283 0 0.513 0.23 0.513 0.513v4.105c0 3.395-2.762 6.158-6.158 6.158-0.531 0-1.053-0.070-1.56-0.203-0.063-0.471-0.336-0.872-0.725-1.109zM18.473 30.881h-1.121c0.058-0.161 0.095-0.332 0.095-0.513v-1.315l1.026 0.587v1.242zM18.473 28.458l-1.026-0.587v-3.424c0.318 0.123 0.659 0.206 1.026 0.245v3.765zM17.447 23.315v-1.327c0.503 0.11 1.018 0.169 1.539 0.169 0.905 0 1.768-0.175 2.566-0.482v0.407c-0.087 0.266-0.627 1.614-2.566 1.614-0.6 0-1.115-0.132-1.539-0.382zM26.166 27.225l-1.018 0.127 0.441 3.528h-6.090v-1.242l3.811-2.177-1.009-1.513 1.955-0.977-0.834-2.086 1.65 0.254c1.986 0.305 3.657 1.743 4.256 3.66l1.275 4.081h-3.98l-0.457-3.656z"></path>
<path d="M19.499 19.079c1.132 0 2.053-0.921 2.053-2.053h-1.026c0 0.566-0.46 1.026-1.026 1.026h-1.026c-0.566 0-1.026-0.46-1.026-1.026h-1.026c0 1.132 0.921 2.053 2.053 2.053h1.026z"></path>
</svg>
