<!-- Generated by IcoMoon.io -->
<svg version="1.1" xmlns="http://www.w3.org/2000/svg" width="32" height="32" viewBox="0 0 32 32">
<title>cash</title>
<path d="M28.161 18.275c-0.838-1.929-1.996-3.799-3.459-5.548-1.77-2.129-3.533-3.553-4.431-4.211l3.393-6.294c0.166-0.313 0.113-0.699-0.146-0.945-0.878-0.858-1.81-1.277-2.847-1.277-0.951 0-1.823 0.359-2.581 0.679-0.599 0.246-1.164 0.486-1.623 0.486-0.14 0-0.259-0.020-0.379-0.067-1.583-0.579-2.801-0.938-3.978-0.938-1.49 0-2.761 0.599-4.005 1.876-0.259 0.266-0.299 0.685-0.093 0.998l3.659 5.528c-0.905 0.672-2.635 2.082-4.371 4.165-1.457 1.75-2.621 3.619-3.459 5.548-1.051 2.428-1.583 4.963-1.583 7.531 0 3.413 2.781 6.194 6.194 6.194h15.102c3.413 0 6.194-2.781 6.194-6.194 0-2.568-0.532-5.103-1.583-7.531zM9.713 2.701c0.772-0.665 1.51-0.958 2.395-0.958 0.945 0 2.009 0.319 3.426 0.845 0.293 0.106 0.605 0.16 0.925 0.16 0.778 0 1.523-0.306 2.235-0.605 0.685-0.286 1.337-0.559 1.969-0.559 0.306 0 0.738 0.053 1.284 0.439l-3.193 5.934h-5.562l-3.479-5.256zM23.551 30.403h-15.102c-2.535 0-4.597-2.062-4.597-4.597 0-4.264 1.563-8.309 4.637-12.022 1.943-2.348 3.918-3.805 4.517-4.231h5.974c0.605 0.419 2.575 1.883 4.517 4.231 3.080 3.712 4.637 7.751 4.637 12.022 0.013 2.535-2.049 4.597-4.584 4.597z"></path>
<path d="M18.415 20.244h-0.452c0.193-0.718 0.126-1.504-0.246-2.195-0.745-1.39-2.448-1.869-3.799-1.064l-0.226 0.14c-0.339 0.2-0.459 0.652-0.273 0.998 0.186 0.353 0.612 0.466 0.951 0.266l0.226-0.14c0.306-0.186 0.652-0.233 0.978-0.166 0.379 0.080 0.719 0.319 0.918 0.699v0c0.253 0.466 0.22 1.025-0.027 1.457h-2.581c-0.326 0-0.585 0.266-0.585 0.585s0.266 0.585 0.585 0.585h0.938l-0.080 0.047c-0.279 0.166-0.526 0.379-0.725 0.619h-1.39c-0.326 0-0.585 0.266-0.585 0.585s0.266 0.585 0.585 0.585h0.778c-0.193 0.718-0.126 1.504 0.246 2.195 0.406 0.752 1.091 1.237 1.843 1.397 0.645 0.133 1.337 0.033 1.956-0.333l0.226-0.14c0.339-0.2 0.459-0.652 0.273-0.998v0c-0.186-0.353-0.612-0.466-0.951-0.266l-0.226 0.14c-0.672 0.399-1.524 0.166-1.896-0.532-0.253-0.466-0.22-1.025 0.027-1.457h2.262c0.326 0 0.585-0.266 0.585-0.585s-0.266-0.585-0.585-0.585h-0.612l0.073-0.047c0.279-0.166 0.526-0.379 0.725-0.619h1.064c0.326 0 0.585-0.266 0.585-0.585s-0.259-0.585-0.585-0.585z"></path>
</svg>
