<!-- Generated by IcoMoon.io -->
<svg version="1.1" xmlns="http://www.w3.org/2000/svg" width="32" height="32" viewBox="0 0 32 32">
<title>padlock</title>
<path d="M5.335 32h21.329c1.29 0 2.344-1.054 2.344-2.344v-12.746c0-1.29-1.054-2.344-2.344-2.344h-1.65v-5.552c0-4.969-4.046-9.015-9.015-9.015s-9.015 4.046-9.015 9.015v5.552h-1.65c-1.29 0-2.344 1.054-2.344 2.344v12.746c0 1.29 1.054 2.344 2.344 2.344zM8.589 9.015c0-4.085 3.326-7.411 7.411-7.411s7.411 3.326 7.411 7.411v5.552h-14.822v-5.552zM4.596 16.91c0-0.406 0.334-0.74 0.74-0.74h21.329c0.406 0 0.74 0.334 0.74 0.74v12.746c0 0.406-0.334 0.74-0.74 0.74h-21.329c-0.406 0-0.74-0.334-0.74-0.74 0 0 0-12.746 0-12.746z"></path>
<path d="M16 26.547c1.8 0 3.267-1.466 3.267-3.267s-1.466-3.267-3.267-3.267-3.267 1.466-3.267 3.267c0 1.807 1.466 3.267 3.267 3.267zM16 21.624c0.917 0 1.663 0.746 1.663 1.663s-0.746 1.663-1.663 1.663c-0.917 0-1.663-0.746-1.663-1.663s0.746-1.663 1.663-1.663z"></path>
</svg>
