<!-- Generated by IcoMoon.io -->
<svg version="1.1" xmlns="http://www.w3.org/2000/svg" width="32" height="32" viewBox="0 0 32 32">
<title>stick-man</title>
<path d="M16.003 8.201c2.263 0 4.101-1.838 4.101-4.101s-1.838-4.101-4.101-4.101c-2.269 0-4.101 1.838-4.101 4.101s1.831 4.101 4.101 4.101zM16.003 1.602c1.38 0 2.498 1.118 2.498 2.498s-1.118 2.498-2.498 2.498-2.498-1.118-2.498-2.498c0-1.38 1.112-2.498 2.498-2.498z"></path>
<path d="M19.162 9.051h-6.331v0.007c-2.243 0-4.068 1.825-4.068 4.068v4.957c-0.131 0.078-0.255 0.17-0.366 0.275-0.392 0.366-0.615 0.889-0.615 1.419v11.536c0 0.36 0.294 0.654 0.654 0.654v0c0.36 0 0.654-0.294 0.654-0.654v-11.51c0-0.347 0.255-0.641 0.589-0.667 0.281-0.026 0.549 0.131 0.661 0.392 0.072 0.17 0.203 0.314 0.379 0.379 0.301 0.105 0.608-0.007 0.772-0.249 0.124-0.177 0.144-0.405 0.065-0.608-0.216-0.536-0.647-0.935-1.177-1.118v-4.807c0-1.36 1.105-2.466 2.466-2.466h6.331c1.347 0.007 2.452 1.112 2.452 2.466v5.212c0 1.027-0.647 1.955-1.615 2.309-0.314 0.118-0.523 0.419-0.523 0.752v7.364c0 0.902-0.732 1.635-1.635 1.635h-3.702c-0.902 0-1.635-0.732-1.635-1.635v-6.036c0-0.445-0.36-0.804-0.804-0.804v0c-0.445 0-0.804 0.36-0.804 0.804v6.043c0 1.785 1.452 3.237 3.237 3.237h3.708c1.785 0 3.237-1.452 3.237-3.237v-6.86c1.301-0.7 2.145-2.073 2.145-3.577v-5.212c-0.007-2.25-1.825-4.068-4.074-4.068z"></path>
</svg>
