<!-- Generated by IcoMoon.io -->
<svg version="1.1" xmlns="http://www.w3.org/2000/svg" width="33" height="32" viewBox="0 0 33 32">
<title>newsvg</title>
<path d="M12.422 31.471c-7.691-2.139-12.325-7.834-12.42-15.262-0.124-9.725 8.737-17.379 18.595-16.061l2.445 0.327-3.328 1.019c-6.235 1.908-10.431 7.111-10.491 13.005-0.058 5.678 3.68 9.938 8.789 10.015 9.107 0.137 12.183-11.782 4.153-16.091-3.149-1.69-2.522-4.867 1.269-6.433 1.566-0.647 1.95-0.566 4.322 0.902 7.085 4.387 9.288 13.874 4.94 21.272-3.496 5.948-11.562 9.173-18.274 7.307z"></path>
</svg>
