<!-- Generated by IcoMoon.io -->
<svg version="1.1" xmlns="http://www.w3.org/2000/svg" width="32" height="32" viewBox="0 0 32 32">
<title>close</title>
<path fill="#db7560" d="M31.13 5.19l-10.806 10.81 10.806 10.806c1.194 1.194 1.194 3.126 0 4.323-1.194 1.19-3.13 1.19-4.323 0l-10.806-10.806-10.806 10.806c-1.194 1.19-3.13 1.19-4.323 0-1.194-1.197-1.194-3.13 0-4.323l10.806-10.806-10.806-10.81c-1.197-1.194-1.197-3.126 0-4.323 1.194-1.194 3.126-1.194 4.32 0l10.81 10.81 10.806-10.81c1.194-1.194 3.13-1.194 4.323 0 1.194 1.197 1.194 3.13 0 4.323z"></path>
</svg>
