<!-- Generated by IcoMoon.io -->
<svg version="1.1" xmlns="http://www.w3.org/2000/svg" width="16" height="16" viewBox="0 0 16 16">
<title>alarm</title>
<path fill="#95e1d3" d="M15.37 5.002c-0.792-1.848-2.274-3.33-4.121-4.122 0.5-0.394 1.129-0.63 1.815-0.63 1.622 0 2.937 1.315 2.937 2.937 0 0.685-0.236 1.315-0.63 1.815zM15.25 8.25c0 1.926-0.756 3.671-1.982 4.97l1.014 1.014c0.134 0.134 0.217 0.319 0.217 0.524 0 0.409-0.332 0.742-0.742 0.742-0.205 0-0.39-0.083-0.524-0.217l-1.089-1.089c-1.175 0.821-2.602 1.306-4.145 1.306-1.54 0-2.964-0.483-4.138-1.302l-1.082 1.082c-0.136 0.136-0.324 0.22-0.53 0.22-0.414 0-0.75-0.336-0.75-0.75 0-0.207 0.084-0.395 0.22-0.53l1.006-1.006c-1.222-1.297-1.976-3.041-1.976-4.963 0-4.004 3.246-7.25 7.25-7.25s7.25 3.246 7.25 7.25zM8 2.5c-3.175 0-5.75 2.574-5.75 5.75s2.575 5.75 5.75 5.75 5.75-2.575 5.75-5.75c0-3.176-2.575-5.75-5.75-5.75zM11 9h-3c-0.414 0-0.75-0.336-0.75-0.75v-4c0-0.414 0.336-0.75 0.75-0.75s0.75 0.336 0.75 0.75v3.249h2.25c0.414 0 0.75 0.336 0.75 0.751s-0.336 0.75-0.75 0.75zM0.643 5.103c-0.402-0.51-0.643-1.152-0.643-1.853 0-1.657 1.343-3 3-3 0.7 0 1.343 0.241 1.853 0.643-1.888 0.808-3.401 2.322-4.21 4.209z"></path>
</svg>
