<!-- Generated by IcoMoon.io -->
<svg version="1.1" xmlns="http://www.w3.org/2000/svg" width="16" height="16" viewBox="0 0 16 16">
<title>arrow-up</title>
<path fill="#ccc" d="M2.010 12.171l5.988-5.987 6.066 6.066c0.206 0.197 0.485 0.32 0.793 0.32 0.631 0 1.143-0.512 1.143-1.144 0-0.308-0.122-0.587-0.321-0.793h0.001l-6.858-6.857c-0.207-0.215-0.499-0.349-0.822-0.349-0.001 0-0.002 0-0.002 0s-0.002 0-0.003 0c-0.323 0-0.614 0.134-0.822 0.349v0l-6.855 6.86c-0.197 0.206-0.318 0.484-0.318 0.79 0 0.632 0.512 1.144 1.143 1.144 0.347 0 0.657-0.155 0.867-0.399z"></path>
</svg>
