<!-- Generated by IcoMoon.io -->
<svg version="1.1" xmlns="http://www.w3.org/2000/svg" width="16" height="16" viewBox="0 0 16 16">
<title>arrow-down</title>
<path fill="#ccc" d="M2.010 3.825l5.988 5.989 6.066-6.066c0.206-0.199 0.485-0.32 0.793-0.32 0.631 0 1.143 0.51 1.143 1.142 0 0.308-0.122 0.587-0.321 0.793l0.001 0.001-6.858 6.856c-0.207 0.216-0.499 0.35-0.822 0.35-0.001 0-0.002 0-0.002 0s-0.002 0-0.003 0c-0.323 0-0.614-0.134-0.822-0.35v0l-6.858-6.856 0.003-0.004c-0.197-0.206-0.318-0.483-0.318-0.79 0-0.632 0.512-1.142 1.143-1.142 0.347 0 0.657 0.154 0.867 0.397z"></path>
</svg>
