<!-- Generated by IcoMoon.io -->
<svg version="1.1" xmlns="http://www.w3.org/2000/svg" width="16" height="16" viewBox="0 0 16 16">
<title>digital</title>
<path fill="#95e1d3" d="M15.25 16h-14.5c-0.414 0-0.75-0.336-0.75-0.75v-14.5c0-0.414 0.336-0.75 0.75-0.75h14.5c0.414 0 0.75 0.336 0.75 0.75v14.5c0 0.414-0.336 0.75-0.75 0.75zM14.5 1.5h-13v13h13v-13zM3.25 2.25h2.75c0.414 0 0.75 0.336 0.75 0.75s-0.336 0.75-0.75 0.75v0h-2.25v2.25c0 0.414-0.336 0.75-0.75 0.75s-0.75-0.336-0.75-0.75v0-3.75h1zM2.25 10v0c0-0.415 0.336-0.75 0.75-0.75s0.75 0.335 0.75 0.75v0 2.249l2.25 0.001c0.414 0 0.75 0.335 0.75 0.75s-0.336 0.75-0.75 0.75v0h-3.75v-3.75zM10 2.25v0h3.75v3.75c0 0.414-0.336 0.75-0.75 0.75s-0.75-0.336-0.75-0.75v0-2.25h-2.25c-0.414 0-0.75-0.336-0.75-0.75s0.336-0.75 0.75-0.75zM10 12.25v-0.001h2.25v-2.249c0-0.415 0.336-0.75 0.75-0.75s0.75 0.335 0.75 0.75v0 3.75h-3.75c-0.414 0-0.75-0.336-0.75-0.75s0.336-0.75 0.75-0.75z"></path>
</svg>
