<!-- Generated by IcoMoon.io -->
<svg version="1.1" xmlns="http://www.w3.org/2000/svg" width="14" height="16" viewBox="0 0 14 16">
<title>equalizer</title>
<path fill="#95e1d3" d="M13.25 8.248h-1.5c-0.414 0-0.75-0.335-0.75-0.75v-3c0-0.414 0.336-0.75 0.75-0.75h1.5c0.414 0 0.75 0.335 0.75 0.75v3c0 0.415-0.336 0.75-0.75 0.75zM11.75 0.749c0-0.414 0.336-0.75 0.75-0.75s0.75 0.336 0.75 0.75v2.251h-1.5v-2.251zM7.75 12.248h-1.5c-0.414 0-0.75-0.335-0.75-0.749v-3c0-0.414 0.336-0.75 0.75-0.75h1.5c0.414 0 0.75 0.336 0.75 0.75v3c0 0.415-0.336 0.749-0.75 0.749zM6.25 0.749c0-0.414 0.336-0.75 0.75-0.75s0.75 0.336 0.75 0.75v6.25h-1.5v-6.25zM2.25 10.249h-1.5c-0.414 0-0.75-0.336-0.75-0.751v-3c0-0.414 0.336-0.75 0.75-0.75h1.5c0.414 0 0.75 0.335 0.75 0.75v3c0 0.415-0.336 0.751-0.75 0.751zM0.75 0.749c0-0.414 0.336-0.75 0.75-0.75s0.75 0.336 0.75 0.75v4.251h-1.5v-4.251zM2.25 15.248c0 0.415-0.336 0.751-0.75 0.751s-0.75-0.336-0.75-0.751v-4.25h1.5v4.25zM7.75 15.248c0 0.415-0.336 0.751-0.75 0.751s-0.75-0.336-0.75-0.751v-2.25h1.5v2.25zM13.25 15.248c0 0.415-0.336 0.751-0.75 0.751s-0.75-0.336-0.75-0.751v-6.249h1.5v6.249z"></path>
</svg>
