<!-- Generated by IcoMoon.io -->
<svg version="1.1" xmlns="http://www.w3.org/2000/svg" width="16" height="16" viewBox="0 0 16 16">
<title>google</title>
<path fill="#95e1d3" d="M13.5 4.467v2.44h-1v-2.44h-2.5v-0.998h2.5v-2.44h1v2.44h2.5v0.998h-2.5zM6.585 1.996c0.888 0.491 1.408 1.288 1.408 2.331 0 0.876-0.541 1.566-1.239 2.102-0.681 0.522-0.81 0.742-0.81 1.186 0 0.378 0.729 1.024 1.111 1.289 1.114 0.774 1.444 1.493 1.444 2.693 0 1.497-1.444 3.169-4.116 3.169-2.344 0-4.383-1.121-4.383-2.618 0-1.52 1.866-2.987 4.209-2.987 0.256 0 0.49-0.010 0.732-0.010-0.321-0.307-0.574-0.688-0.574-1.151 0-0.275 0.089-0.55 0.213-0.785-0.127 0.009-0.257-0.012-0.391-0.012-1.924 0-3.214-1.391-3.214-3.057 0-1.631 1.781-3.133 3.673-3.133 1.055 0 4.22 0 4.22 0l-0.945 0.983h-1.338zM4.656 9.549c-1.62-0.017-3.071 0.97-3.071 2.156 0 1.209 1.17 2.094 2.789 2.094 2.277 0 3.071-0.823 3.071-2.032 0-0.146-0.018-0.289-0.052-0.428-0.178-0.685-0.808-1.024-1.688-1.624-0.319-0.102-0.671-0.161-1.049-0.166zM6.476 4.346c-0.189-1.402-1.269-2.528-2.356-2.559s-1.816 1.041-1.628 2.443c0.188 1.403 1.221 2.566 2.308 2.597 1.087 0.032 1.863-1.079 1.676-2.481z"></path>
</svg>
