<!-- Generated by IcoMoon.io -->
<svg version="1.1" xmlns="http://www.w3.org/2000/svg" width="16" height="16" viewBox="0 0 16 16">
<title>instagram</title>
<path fill="#f38181" d="M13.981 15.994h-11.991c-1.104 0-1.998-0.895-1.998-1.998v-11.991c0-1.104 0.895-1.998 1.998-1.998h11.991c1.104 0 1.998 0.894 1.998 1.998v11.991c0 1.104-0.895 1.998-1.998 1.998zM7.986 4.902c-1.247 0-2.318 0.738-2.809 1.799h-0.003c-0.005 0.011-0.009 0.023-0.014 0.034-0.029 0.066-0.055 0.133-0.080 0.201-0.012 0.032-0.025 0.064-0.036 0.097-0.023 0.070-0.042 0.141-0.059 0.212-0.009 0.034-0.019 0.066-0.026 0.1-0.016 0.076-0.027 0.152-0.038 0.23-0.004 0.031-0.011 0.062-0.014 0.094-0.011 0.109-0.018 0.219-0.018 0.332 0 1.711 1.387 3.097 3.098 3.097s3.098-1.386 3.098-3.097c0-0.112-0.007-0.223-0.018-0.332-0.004-0.032-0.010-0.062-0.014-0.094-0.011-0.077-0.022-0.154-0.038-0.23-0.008-0.034-0.017-0.066-0.026-0.1-0.017-0.072-0.036-0.142-0.059-0.212-0.011-0.032-0.024-0.064-0.036-0.097-0.025-0.068-0.051-0.136-0.080-0.201-0.005-0.011-0.009-0.023-0.014-0.034h-0.003c-0.491-1.060-1.563-1.799-2.809-1.799zM14.181 2.604c0-0.442-0.358-0.799-0.799-0.799h-1.599c-0.442 0-0.799 0.357-0.799 0.799v1.599c0 0.442 0.358 0.799 0.799 0.799h1.599c0.442 0 0.799-0.358 0.799-0.799v-1.599zM14.181 6.7h-1.474c0.114 0.414 0.175 0.85 0.175 1.3 0 2.704-2.192 4.896-4.896 4.896s-4.896-2.191-4.896-4.896c0-0.45 0.061-0.886 0.175-1.3h-1.474v6.695c0 0.442 0.358 0.8 0.799 0.8h10.792c0.442 0 0.799-0.358 0.799-0.8v-6.695z"></path>
</svg>
