<!-- Generated by IcoMoon.io -->
<svg version="1.1" xmlns="http://www.w3.org/2000/svg" width="16" height="16" viewBox="0 0 16 16">
<title>picture</title>
<path fill="#95e1d3" d="M16 12.799c0 0.347-0.223 0.64-0.533 0.75v0.898c0.31 0.11 0.533 0.404 0.533 0.751 0 0.442-0.358 0.801-0.8 0.801-0.348 0-0.641-0.224-0.751-0.534h-0.898c-0.11 0.31-0.403 0.534-0.751 0.534s-0.641-0.224-0.751-0.534h-0.898c-0.11 0.31-0.403 0.534-0.751 0.534s-0.641-0.224-0.751-0.534h-0.898c-0.11 0.31-0.403 0.534-0.751 0.534s-0.641-0.224-0.751-0.534h-0.898c-0.11 0.31-0.403 0.534-0.751 0.534s-0.641-0.224-0.751-0.534h-0.898c-0.11 0.31-0.403 0.534-0.751 0.534s-0.641-0.224-0.751-0.534h-0.898c-0.11 0.31-0.403 0.534-0.751 0.534-0.442 0-0.8-0.359-0.8-0.801 0-0.348 0.223-0.641 0.533-0.751v-0.898c-0.31-0.11-0.533-0.403-0.533-0.75 0-0.349 0.223-0.641 0.533-0.751v-0.898c-0.31-0.111-0.533-0.404-0.533-0.751s0.223-0.641 0.533-0.751v-0.898c-0.31-0.11-0.533-0.403-0.533-0.75s0.223-0.641 0.533-0.752v-0.898c-0.31-0.11-0.533-0.403-0.533-0.751s0.223-0.641 0.533-0.75v-0.899c-0.31-0.11-0.533-0.403-0.533-0.751s0.223-0.641 0.533-0.751v-0.899c-0.31-0.109-0.533-0.403-0.533-0.75 0-0.442 0.358-0.799 0.8-0.799 0.348 0 0.641 0.222 0.751 0.533h0.898c0.11-0.311 0.403-0.533 0.751-0.533s0.641 0.222 0.751 0.533h0.898c0.11-0.311 0.403-0.533 0.751-0.533s0.641 0.222 0.751 0.533h0.898c0.11-0.311 0.403-0.533 0.751-0.533s0.641 0.222 0.751 0.533h0.898c0.11-0.311 0.403-0.533 0.751-0.533s0.641 0.222 0.751 0.533h0.898c0.11-0.311 0.403-0.533 0.751-0.533s0.641 0.222 0.751 0.533h0.898c0.11-0.311 0.403-0.533 0.751-0.533 0.442 0 0.8 0.357 0.8 0.799 0 0.348-0.223 0.641-0.533 0.75v0.899c0.31 0.11 0.533 0.403 0.533 0.751s-0.223 0.641-0.533 0.751v0.899c0.31 0.109 0.533 0.403 0.533 0.75s-0.223 0.641-0.533 0.751v0.898c0.31 0.111 0.533 0.404 0.533 0.752s-0.223 0.641-0.533 0.75v0.898c0.31 0.11 0.533 0.404 0.533 0.751s-0.223 0.641-0.533 0.751v0.898c0.31 0.11 0.533 0.403 0.533 0.751zM13.867 2.132h-11.733v11.734h11.733v-11.734zM6.933 10.666l3.733-4.533 2.4 3.733v3.199h-10.133l3.2-3.199 0.8 0.799zM5.333 6.932c-0.884 0-1.6-0.716-1.6-1.601s0.716-1.599 1.6-1.599 1.6 0.716 1.6 1.599c0 0.884-0.716 1.601-1.6 1.601z"></path>
</svg>
