<!-- Generated by IcoMoon.io -->
<svg version="1.1" xmlns="http://www.w3.org/2000/svg" width="16" height="16" viewBox="0 0 16 16">
<title>pinterest</title>
<path fill="#f38181" d="M6.858 10.236c-0.129 0.513-0.258 1.050-0.393 1.575-0.132 0.518-0.249 1.044-0.442 1.52-0.319 0.788-0.725 1.55-1.257 2.167-0.354 0.41-0.279 0.247-0.385 0.225-0.081-0.017-0.088-0.097-0.104-0.212-0.087-0.626-0.028-1.351 0.004-2.055 0.037-0.802 0.206-1.47 0.362-2.136 0.298-1.27 0.582-2.515 0.883-3.793 0.020-0.085 0.074-0.225 0.055-0.274-0.137-0.355-0.225-0.674-0.264-1.046-0.045-0.428-0.010-0.828 0.086-1.196 0.17-0.651 0.562-1.228 1.166-1.439 0.384-0.133 0.809-0.073 1.068 0.081 0.266 0.159 0.449 0.41 0.534 0.767 0.091 0.378 0.024 0.831-0.049 1.164-0.164 0.75-0.38 1.313-0.577 2.037-0.097 0.359-0.207 0.727-0.116 1.115 0.084 0.356 0.269 0.601 0.521 0.785 0.262 0.191 0.572 0.295 1 0.28 0.756-0.026 1.281-0.51 1.631-0.965 0.562-0.729 0.902-1.713 1.031-2.884 0.041-0.378 0.072-0.812 0.043-1.239-0.054-0.79-0.301-1.426-0.694-1.918-0.373-0.469-0.902-0.842-1.546-1.053-0.638-0.208-1.521-0.278-2.306-0.143-1.426 0.244-2.432 1.055-3.025 2.174-0.31 0.586-0.515 1.26-0.515 2.098 0 0.647 0.159 1.148 0.417 1.538 0.082 0.124 0.202 0.226 0.282 0.367 0.114 0.201-0.017 0.499-0.073 0.716-0.068 0.262-0.075 0.623-0.38 0.629-0.127 0.002-0.286-0.090-0.393-0.15-0.803-0.444-1.29-1.251-1.49-2.298-0.122-0.636-0.121-1.378 0-1.993 0.117-0.595 0.335-1.143 0.577-1.588 0.501-0.925 1.235-1.665 2.129-2.193 0.687-0.406 1.462-0.691 2.404-0.828 0.313-0.046 0.636-0.065 0.988-0.081 1.026-0.049 1.959 0.184 2.662 0.498 0.742 0.332 1.334 0.773 1.834 1.321 0.516 0.563 0.891 1.218 1.129 2.036 0.124 0.426 0.245 0.881 0.245 1.407 0 0.528-0.111 0.993-0.19 1.457-0.292 1.74-1.119 3.164-2.362 3.974-0.301 0.196-0.665 0.377-1.079 0.498-0.41 0.119-0.879 0.209-1.38 0.174-0.487-0.033-0.886-0.166-1.22-0.355-0.332-0.188-0.612-0.418-0.81-0.766z"></path>
</svg>
