<!-- Generated by IcoMoon.io -->
<svg version="1.1" xmlns="http://www.w3.org/2000/svg" width="16" height="16" viewBox="0 0 16 16">
<title>shopping</title>
<path fill="#fff" d="M15.588 4.533l0.001 0.001-2.2 4.889c-0.108 0.241-0.343 0.412-0.62 0.43v0l-6.336 0.422 0.366 1.046h6.899c0.81 0 1.467 0.657 1.467 1.467s-0.657 1.467-1.467 1.467-1.467-0.656-1.467-1.467h-6.844c0 0.811-0.657 1.467-1.467 1.467s-1.467-0.656-1.467-1.467c0-0.81 0.657-1.467 1.467-1.467h1.325l-2.823-8.067h-1.68c-0.405 0-0.733-0.328-0.733-0.733s0.328-0.733 0.733-0.733h2.2c0.32 0 0.589 0.206 0.69 0.492l0.003-0.001 0.427 1.22h10.859c0.405 0 0.733 0.328 0.733 0.733 0 0.108-0.024 0.209-0.066 0.3zM4.575 4.966l1.356 3.873 6.301-0.42 1.554-3.453h-9.211z"></path>
</svg>
