<!-- Generated by IcoMoon.io -->
<svg version="1.1" xmlns="http://www.w3.org/2000/svg" width="16" height="16" viewBox="0 0 16 16">
<title>target</title>
<path fill="#95e1d3" d="M8 15.999c-4.418 0-8-3.582-8-8.001 0-4.418 3.582-8 8-8s8 3.582 8 8c0 4.419-3.582 8.001-8 8.001zM8 1.499c-3.59 0-6.5 2.91-6.5 6.499s2.91 6.5 6.5 6.5 6.5-2.91 6.5-6.5c0-3.59-2.91-6.5-6.5-6.5zM8 12.748c-2.623 0-4.75-2.127-4.75-4.75s2.127-4.75 4.75-4.75 4.75 2.127 4.75 4.75c0 2.623-2.127 4.75-4.75 4.75zM8 4.749c-1.795 0-3.25 1.455-3.25 3.25s1.455 3.251 3.25 3.251 3.25-1.456 3.25-3.251c0-1.795-1.455-3.249-3.25-3.249zM8 9.499c-0.829 0-1.5-0.672-1.5-1.501s0.671-1.499 1.5-1.499 1.5 0.671 1.5 1.499c0 0.829-0.671 1.501-1.5 1.501z"></path>
</svg>
