<!-- Generated by IcoMoon.io -->
<svg version="1.1" xmlns="http://www.w3.org/2000/svg" width="16" height="16" viewBox="0 0 16 16">
<title>view</title>
<path fill="#95e1d3" d="M16.361 8.123c-0.001 0.007-0.001 0.014-0.002 0.020 0 0.003-0.001 0.008-0.001 0.011 0 0.005-0.002 0.010-0.002 0.014-0.001 0.006-0.002 0.012-0.003 0.018 0 0.001 0 0.002 0 0.002-0.020 0.131-0.080 0.251-0.171 0.345-0.172 0.208-0.36 0.403-0.548 0.595-1.021 1.036-2.191 1.96-3.472 2.629-0.819 0.429-1.694 0.774-2.602 0.94-0.998 0.183-1.997 0.173-2.989-0.042-1.718-0.374-3.273-1.301-4.634-2.411-0.632-0.515-1.253-1.078-1.775-1.711-0.229-0.277-0.229-0.605 0-0.883 0.171-0.208 0.359-0.404 0.548-0.596 1.020-1.035 2.19-1.959 3.472-2.629 0.819-0.428 1.693-0.774 2.601-0.94 0.998-0.182 1.997-0.173 2.989 0.043 1.718 0.373 3.273 1.301 4.634 2.41 0.632 0.515 1.253 1.079 1.775 1.712 0.091 0.093 0.151 0.215 0.171 0.344 0 0.001 0 0.002 0.001 0.003 0.001 0.005 0.002 0.012 0.002 0.017s0.002 0.010 0.003 0.015c0 0.003 0 0.007 0.001 0.010 0 0.007 0.001 0.014 0.001 0.021 0.001 0.010 0.002 0.020 0.002 0.031s-0.001 0.021-0.001 0.031zM8.176 4.894c-1.695 0-3.069 1.374-3.069 3.069s1.374 3.069 3.069 3.069c1.695 0 3.070-1.374 3.070-3.069s-1.375-3.069-3.070-3.069zM8.176 9.498c-0.847 0-1.534-0.686-1.534-1.534s0.687-1.535 1.534-1.535c0.848 0 1.535 0.687 1.535 1.535s-0.687 1.534-1.535 1.534z"></path>
</svg>
