<?xml version="1.0" encoding="UTF-8" standalone="no"?>
<!-- Created with Inkscape (http://www.inkscape.org/) -->

<svg
   xmlns:dc="http://purl.org/dc/elements/1.1/"
   xmlns:cc="http://creativecommons.org/ns#"
   xmlns:rdf="http://www.w3.org/1999/02/22-rdf-syntax-ns#"
   xmlns:svg="http://www.w3.org/2000/svg"
   xmlns="http://www.w3.org/2000/svg"
   xmlns:sodipodi="http://sodipodi.sourceforge.net/DTD/sodipodi-0.dtd"
   xmlns:inkscape="http://www.inkscape.org/namespaces/inkscape"
   version="1.1"
   id="svg2"
   width="935.43768"
   height="315.02881"
   viewBox="0 0 935.43765 315.02879"
   sodipodi:docname="logo1.svg"
   inkscape:version="0.92.1 r15371">
  <metadata
     id="metadata8">
    <rdf:RDF>
      <cc:Work
         rdf:about="">
        <dc:format>image/svg+xml</dc:format>
        <dc:type
           rdf:resource="http://purl.org/dc/dcmitype/StillImage" />
        <dc:title></dc:title>
      </cc:Work>
    </rdf:RDF>
  </metadata>
  <defs
     id="defs6" />
  <sodipodi:namedview
     pagecolor="#ffffff"
     bordercolor="#666666"
     borderopacity="1"
     objecttolerance="10"
     gridtolerance="10"
     guidetolerance="10"
     inkscape:pageopacity="0"
     inkscape:pageshadow="2"
     inkscape:window-width="1366"
     inkscape:window-height="705"
     id="namedview4"
     showgrid="false"
     fit-margin-top="0"
     fit-margin-left="0"
     fit-margin-right="0"
     fit-margin-bottom="0"
     inkscape:zoom="0.31289473"
     inkscape:cx="538.35722"
     inkscape:cy="326.77017"
     inkscape:window-x="-8"
     inkscape:window-y="-8"
     inkscape:window-maximized="1"
     inkscape:current-layer="svg2" />
  <path
     style="fill:#030303;stroke-width:1.33333337"
     d="m 456.00006,313.51642 c 0,-2.66406 -11.6693,-26.25078 -16.2344,-32.81389 -11.2368,-16.15504 -35.2119,-41.14263 -46.4323,-48.39311 -8.9338,-5.77295 -8.6748,-5.40115 -14.5501,-20.88519 -3.0042,-7.91748 -6.0594,-15.43726 -6.7894,-16.71065 -0.7299,-1.27339 -1.3272,-3.22339 -1.3272,-4.33333 0,-1.10995 -0.67,-2.0181 -1.4888,-2.0181 -0.8189,0 -1.1651,1.05 -0.7694,2.33334 2.6711,8.66244 7.5916,27.52102 7.5916,29.09621 0,2.61552 -1.7224,2.40399 -9.7522,-1.19771 -8.7501,-3.92484 -21.5352,-9.04738 -33.8219,-13.5513 -10.33042,-3.78682 -12.5971,-5.93852 -28.45725,-27.01387 -4.00103,-5.31667 -7.79496,-9.66667 -8.43096,-9.66667 -1.66862,0 -0.70758,1.93818 7.60304,15.33334 8.17337,13.17397 7.88183,14.50208 -2.40127,10.93845 -4.98489,-1.72752 -5.42441,-2.34123 -8.38936,-11.71408 -4.64567,-14.686 -8.492,-23.89104 -9.98288,-23.89104 -0.72767,0 -1.0082,1.35 -0.62343,3 1.98512,8.51251 3.85502,27.92897 2.78815,28.95129 -0.67283,0.64474 -5.29301,0.37164 -10.53199,-0.62252 -9.41786,-1.78714 -30.4284,-4.00277 -51.38373,-5.41857 -11.2436,-0.75965 -11.40616,-0.82127 -13.20515,-5.00632 -4.6143,-10.73443 -6.79448,-16.10482 -13.35769,-32.90388 -3.86783,-9.9 -7.8167,-19.8 -8.77526,-22 -0.95856,-2.2 -3.06238,-7.6 -4.67517,-12 -3.42464,-9.34315 -5.89643,-12.67303 -4.94869,-6.66667 0.34713,2.2 3.46945,13.9 6.93848,26 8.40049,29.301 8.27017,28.83412 10.60645,38 3.8054,14.92968 7.09144,13.45714 -32.14035,14.40276 -18.85093,0.45439 -34.50644,0.59414 -34.79001,0.31056 -0.28357,-0.28357 0.39115,-3.71006 1.49937,-7.61445 2.62286,-9.24051 4.89842,-24.53991 4.89842,-32.93378 0,-15.16256 -6.59546,-35.08013 -16.61483,-50.174939 -8.99556,-13.55238 -34.478398,-35.13171 -55.679788,-47.15066 -4.19538,-2.37832 -8.87113,-5.94016 -10.39057,-7.9152 -1.51943,-1.97503 -3.86637,-5.06939 -5.21542,-6.87635 -2.22386,-2.97873 -2.79415,-3.12985 -6.10984,-1.61912 -3.15597,1.43795 -4.39608,1.28104 -9.05089,-1.14517 C 21.97828,24.627891 0,5.3125514 0,1.8698314 c 0,-2.89359 8.30145,-1.46330996 27.02659,4.6565 l 18.860912,6.1641896 15.38959,-0.87416 c 8.46426,-0.4808 22.64125,-1.49647 31.5044,-2.2570396 l 16.114808,-1.38288 31.21852,8.0057996 c 28.64718,7.3464 40.90047,10.59012 48.88519,12.94099 1.84735,0.5439 3,0.31122 3,-0.60558 0,-0.81886 -0.85137,-1.48884 -1.89195,-1.48884 -1.04057,0 -3.59057,-0.90714 -5.66666,-2.01588 -2.0761,-1.10873 -13.07472,-5.82518 -24.44139,-10.481 C 130.43358,2.4214414 130.86422,1.6954814 167.61446,1.6954814 h 29.14331 l 6.69471,7 c 5.72767,5.9888696 12.50151,13.7194296 23.95056,27.3333296 4.92636,5.85786 4.7442,2.8897 -0.24547,-4 -2.78826,-3.85 -5.39365,-7.3 -5.78974,-7.66666 -2.10688,-1.95032 -14.70115,-20.2505596 -14.70115,-21.3616596 0,-0.81576 13.12172,-1.33788 35,-1.39266 19.25,-0.0483 41.09391,-0.38655 48.54201,-0.75185996 l 13.54203,-0.66418 0.74571,3.75184996 c 0.41014,2.06351 1.14448,6.1518396 1.63184,9.0851696 0.48737,2.93334 1.42862,6.01982 2.09171,6.85883 0.66306,0.83903 1.54552,4.43903 1.961,8 0.74974,6.4258 -0.62739,13.6144 -6.22121,32.47451 -6.31346,21.28653 -14.62642,50.350349 -14.62642,51.136989 0,0.47465 0.6,0.86301 1.33333,0.86301 0.73333,0 1.33333,-1.08 1.33333,-2.4 0,-1.32 0.52603,-2.97 1.16895,-3.66667 0.64292,-0.69666 2.48347,-5.16666 4.09008,-9.933329 5.20793,-15.45133 18.90723,-49.27871 20.30711,-50.14388 0.74908,-0.46296 4.61464,2.43696 8.59015,6.44425 5.92366,5.97099 8.55836,7.60508 14.59806,9.054 4.0535,0.97242 7.6431,2.20996 7.9769,2.75012 0.3338,0.54016 -3.1315,4.48763 -7.7007,8.77214 -27.78312,26.05202 -30.64476,30.062849 -7.9363,11.12337 l 11.9901,-10 h 38.4562 38.4562 l 0.799,-5.33333 c 3.0829,-20.57765 8.2986,-48.20877 9.2954,-49.24445 1.7521,-1.82045 2.0639,-1.23201 7.4169,13.99779 2.6897,7.65232 5.0345,14.09715 5.2108,14.32183 0.1762,0.22469 3.4135,-0.60318 7.1939,-1.8397 7.1002,-2.32234 17.9422,-1.91389 20.6334,0.77732 3.0608,3.0608 4.6933,0.91911 6.8699,-9.0128 2.8927,-13.19942 4.1249,-15.70748 6.677,-13.58949 1.0488,0.87047 1.9177,2.55921 1.9308,3.75275 0.028,2.53378 6.9997,30.46284 9.4812,37.98175 3.0065,9.10949 4.6644,9.53266 36.4238,9.29698 18.3961,-0.13652 31.9774,-0.90762 39.4045,-2.23728 10.3539,-1.85361 61.8448,-13.08228 71.3333,-15.55571 2.3822,-0.62097 -5.8416,-1.0979 -20.3333,-1.17918 -13.3833,-0.0751 -24.3315,-0.58648 -24.3292,-1.13648 0,-0.55 6.7142,-7 14.9153,-14.33334 27.0307,-24.17052 30.1774,-27.12544 29.5519,-27.75084 -0.3406,-0.34061 -4.4853,0.9146 -9.2106,2.78938 -4.7252,1.87476 -8.9531,3.0469 -9.3952,2.60477 -1.1341,-1.13404 3.2473,-13.8004096 5.3882,-15.5772096 1.1655,-0.96735 8.5461,-1.34559 21.5148,-1.10262 l 19.7406,0.36986 -4.3927,5 c -2.416,2.7499996 -4.1805,4.9996896 -3.9212,4.9993296 0.2593,-3.7e-4 3.6279,-1.20037 7.4857,-2.6666696 5.105,-1.94028 10.2429,-2.666 18.8748,-2.666 h 11.8604 l 11.4586,12.1724396 c 6.3022,6.69484 11.4586,11.6289 11.4586,10.96458 0,-0.66434 -3.3,-5.94891 -7.3333,-11.74352 -4.0334,-5.7946 -7.3334,-11.1066996 -7.3334,-11.8046396 0,-0.78142 2.4334,-0.84078 6.3334,-0.1545 9.5936,1.68824 59.749,1.35288 82.3333,-0.55052 43.8617,-3.69664 91.3518,-6.37359996 103.7151,-5.84629996 11.8203,0.50413 12.9769,0.78208 12.2879,2.95292996 -0.6644,2.09325 0.3968,2.51265 8.3877,3.31515 10.14736,1.01906 14.25896,2.57533 10.11876,3.8300796 -1.3802,0.41829 -10.85006,1.37452 -21.04426,2.12493 -10.1941,0.75041 -18.8864,1.71612 -19.3163,2.14599 -0.4299,0.42988 -0.7892,1.58972 -0.7986,2.57744 -0.01,0.9877 -6.2457,4.91565 -13.8585,8.72876 -23.1111,11.57585 -36.8109,21.98732 -64.6136,49.10464 -10.566,10.30548 -11.7252,11.91363 -11.1784,15.50688 0.6862,4.50907 0,7.34233 -1.7859,7.34233 -0.6585,0 -5.4225,-3.98594 -10.5868,-8.85764 -5.1643,-4.8717 -9.6671,-8.58016 -10.0062,-8.24098 -0.3392,0.33916 2.0749,4.31564 5.3645,8.83662 3.2897,4.52099 5.9813,9.10722 5.9813,10.19163 0,1.084409 -1.2735,5.143869 -2.8299,9.021009 -6.2439,15.55352 -7.0238,44.55304 -1.7808,66.21507 1.1314,4.67447 1.8087,8.74736 1.5052,9.0509 -0.3035,0.30352 -7.679,0.85713 -16.3899,1.23025 -8.7109,0.37311 -16.6555,0.95731 -17.6548,1.29821 -2.5638,0.87466 0.01,3.74912 8.4359,9.42388 6.1714,4.15614 7.7175,6.23371 2.3628,3.17534 -1.2733,-0.72732 -6.8152,-3.39159 -12.3152,-5.92059 -12.7302,-5.85359 -23.9515,-12.08731 -47.5425,-26.41112 -41.5468,-25.22604 -45.457,-26.07815 -9.1935,-2.00342 14.6285,9.71163 26.7965,18.31154 27.04,19.1109 0.3036,0.99657 -8.2659,1.74224 -27.264,2.37236 -15.2386,0.50543 -33.7067,1.52052 -41.04,2.25575 -26.857,2.69262 -30,2.93889 -30,2.35058 0,-0.715 6.1801,-14.11064 8.034,-17.41398 0.7146,-1.27339 1.2993,-2.71519 1.2993,-3.20402 0,-1.38116 -4.0729,3.79602 -10.9492,13.9178 -6.3957,9.41427 -10.9506,12.16864 -16.5623,10.01523 -1.2839,-0.49265 -2.8386,0.0161 -3.7161,1.21615 -0.8297,1.13476 -6.058,3.33976 -11.6184,4.9 -10.9419,3.07032 -21.9609,7.32142 -32.4873,12.53354 -3.6667,1.81555 -12.3667,6.05318 -19.3333,9.41695 -6.9667,3.36377 -14.4667,7.32781 -16.6667,8.80899 -2.2,1.48116 -4.9503,2.69698 -6.1118,2.70181 -2.361,0.009 -15.6744,-9.22115 -39.9623,-27.70829 -16.9237,-12.88172 -22.0654,-15.38339 -11.1064,-5.4038 32.8463,29.91086 41.8472,38.63862 41.8472,40.57764 0,0.92725 -3.1182,5.02881 -6.9292,9.11457 l -6.9292,7.42867 -8.7375,-0.0795 c -4.8056,-0.0437 -11.7375,-0.57776 -15.4041,-1.18677 -10.4279,-1.73202 -9.9828,-0.0508 1.2157,4.59181 15.5031,6.42732 15.3872,6.11112 7.1108,19.3976 -3.8635,6.20227 -7.8263,13.07684 -8.8061,15.27684 -0.9799,2.2 -3.3242,7.45 -5.2095,11.66667 -2.3671,5.29411 -4.1835,7.66667 -5.8694,7.66667 -1.3429,-2e-5 -2.4415,-0.68059 -2.4415,-1.51242 z M 281.48335,151.97882 c -1.0889,-1.0889 -1.48334,-0.93968 -1.48334,0.5611 0,2.65048 1.79294,4.44342 2.45556,2.45556 0.28111,-0.84333 -0.1564,-2.20084 -0.97222,-3.01666 z M 176.91082,98.778821 c -0.42562,-1.06364 -0.74157,-0.74771 -0.80554,0.80556 -0.0579,1.405539 0.25722,2.193049 0.70029,1.749999 0.44305,-0.44306 0.49041,-1.593069 0.1052,-2.555559 z"
     id="path3682"
     inkscape:connector-curvature="0" />
</svg>
